<?xml version="1.0" encoding="UTF-8"?>
<!-- Created with Inkscape (http://www.inkscape.org/) -->
<svg width="22" height="22" version="1.1" viewBox="0 0 22 22" xml:space="preserve" xmlns="http://www.w3.org/2000/svg" xmlns:cc="http://creativecommons.org/ns#" xmlns:dc="http://purl.org/dc/elements/1.1/" xmlns:rdf="http://www.w3.org/1999/02/22-rdf-syntax-ns#"><metadata><rdf:RDF><cc:Work rdf:about=""><dc:contributor><cc:Agent><dc:title>Wolthera van Hövell tot Westerflier (Vectorization)</dc:title></cc:Agent></dc:contributor></cc:Work><cc:License rdf:about="http://creativecommons.org/licenses/by-sa/4.0/"><cc:permits rdf:resource="http://creativecommons.org/ns#Reproduction"/><cc:permits rdf:resource="http://creativecommons.org/ns#Distribution"/><cc:requires rdf:resource="http://creativecommons.org/ns#Notice"/><cc:requires rdf:resource="http://creativecommons.org/ns#Attribution"/><cc:permits rdf:resource="http://creativecommons.org/ns#DerivativeWorks"/><cc:requires rdf:resource="http://creativecommons.org/ns#ShareAlike"/></cc:License></rdf:RDF></metadata><g fill="#fff" stroke-linejoin="round"><path d="m9.0664 0.011719c-2.231 0.10205-4.4265 0.98668-6.1426 2.6328-3.4322 3.2923-3.8998 8.6264-1.0918 12.465l0.80859-0.58984c-2.5167-3.4403-2.1015-8.2035 0.97461-11.154 3.0761-2.9507 7.851-3.1693 11.184-0.51172l0.625-0.78125c-1.8592-1.4826-4.1264-2.1626-6.3574-2.0605z" color="#000000" style="-inkscape-stroke:none;paint-order:markers stroke fill"/><path d="m16.383 0.076172c-0.3737-0.15477-0.80383-0.069207-1.0898 0.2168l-4 4c-0.62956 0.62999-0.18361 1.7067 0.70703 1.707h5v-5c-2.6e-5 -0.4044-0.2436-0.76899-0.61719-0.92383z" style="paint-order:markers stroke fill"/><path d="m5.3828 11.076c-0.3737-0.15477-0.80383-0.06921-1.0898 0.2168l-4 4c-0.62956 0.62999-0.18361 1.7067 0.70703 1.707h5v-5c-2.6e-5 -0.4044-0.2436-0.76899-0.61719-0.92383z" style="paint-order:markers stroke fill"/></g><g><path d="m9.1113 1.0117c-1.9963 0.091308-3.9608 0.8808-5.4961 2.3535-3.0706 2.9454-3.4868 7.7202-0.97461 11.154l0.80664-0.5918c-2.2209-3.0359-1.8532-7.2359 0.86133-9.8398 2.7145-2.6039 6.9263-2.7964 9.8672-0.45117l0.62305-0.7832c-1.6633-1.3264-3.6912-1.9331-5.6875-1.8418z" color="#000000" stroke-linejoin="round" style="-inkscape-stroke:none;paint-order:markers stroke fill"/><path d="m12 5 4-4v4z" style="paint-order:markers stroke fill"/><path d="m1 16 4-4v4z" style="paint-order:markers stroke fill"/></g></svg>
