<?xml version="1.0" encoding="UTF-8"?>
<!-- Created with Inkscape (http://www.inkscape.org/) -->
<svg width="32" height="32" version="1.1" viewBox="0 0 32 32" xml:space="preserve" xmlns="http://www.w3.org/2000/svg" xmlns:cc="http://creativecommons.org/ns#" xmlns:dc="http://purl.org/dc/elements/1.1/" xmlns:rdf="http://www.w3.org/1999/02/22-rdf-syntax-ns#"><path d="m30.347 14.344-12.003 12.003 0.70866 0.70866 12.003-12.003z" color="#000000" fill="#f8f8f8" stroke-dashoffset=".8" stroke-width="3.7795" style="-inkscape-stroke:none;paint-order:markers fill stroke"/><g transform="scale(3.7795)" stroke-linejoin="round"><path transform="rotate(90)" d="m1.3229-3.4396h0.79375v1.3229h-0.79375zm-3e-7 2.1167h0.79375v1.3229h-0.79375zm0.79375 0v-0.79375h1.3229v0.79375zm-2.1167 0v-0.79375h1.3229v0.79375z" fill="#fff" stroke-width=".91654" style="paint-order:stroke fill markers"/><path transform="rotate(90)" d="m1.5875-3.4396h0.26458v1.3229h-0.26458zm-3e-7 2.1167h0.26458v1.3229h-0.26458zm0.52917-0.26458v-0.26458h1.3229v0.26458zm-2.1167 0v-0.26458h1.3229v0.26458z" stroke-width=".52917" style="paint-order:stroke fill markers"/></g><g stroke-dashoffset=".8" stroke-width="3.7795"><path d="m17 27v0.99951h8.9995v-0.99951z" color="#000000" fill="#fff" style="-inkscape-stroke:none;paint-order:markers fill stroke"/><path d="m12.998 17 9.69e-4 0.99951h13.001l2.64e-4 13h1.0005l-0.0012-14z" color="#000000" style="-inkscape-stroke:none;paint-order:markers fill stroke"/><path d="m17 13v14h14v-1h-13v-13z" color="#000000" style="-inkscape-stroke:none;paint-order:markers fill stroke"/></g><g fill="#fff" stroke-dashoffset=".8" stroke-width="3.7795"><path d="m16 18v9h1.0005v-9z" color="#000000" style="-inkscape-stroke:none;paint-order:markers fill stroke"/><path d="m27 27v4h1.0001l-2.78e-4 -3h2.9999l2.78e-4 -1z" color="#000000" style="-inkscape-stroke:none;paint-order:markers fill stroke"/><path d="m16 13v3.0005h-3.0005v1.0005h4.001v-4.001z" color="#000000" style="-inkscape-stroke:none;paint-order:markers fill stroke"/></g><path d="m18 16v1.0006h9v8.9994l1 2.13e-4v-10z" color="#000000" fill="#f8f8f8" stroke-dashoffset=".8" stroke-width="3.7795" style="-inkscape-stroke:none;paint-order:markers fill stroke"/><path d="m29.646 13.649-11.996 11.996 0.70128 0.70866 12.003-12.003z" color="#000000" stroke-dashoffset=".8" stroke-width="3.7795" style="-inkscape-stroke:none;paint-order:markers fill stroke"/><metadata><rdf:RDF><cc:Work rdf:about=""><dc:contributor><cc:Agent><dc:title>Wolthera van Hövell tot Westerflier (Vectorization)</dc:title></cc:Agent></dc:contributor></cc:Work><cc:License rdf:about="http://creativecommons.org/licenses/by-sa/4.0/"><cc:permits rdf:resource="http://creativecommons.org/ns#Reproduction"/><cc:permits rdf:resource="http://creativecommons.org/ns#Distribution"/><cc:requires rdf:resource="http://creativecommons.org/ns#Notice"/><cc:requires rdf:resource="http://creativecommons.org/ns#Attribution"/><cc:permits rdf:resource="http://creativecommons.org/ns#DerivativeWorks"/><cc:requires rdf:resource="http://creativecommons.org/ns#ShareAlike"/></cc:License></rdf:RDF></metadata></svg>
