<?xml version="1.0" encoding="UTF-8"?>
<!-- Created with Inkscape (http://www.inkscape.org/) -->
<svg width="32" height="32" version="1.1" viewBox="0 0 32 32" xml:space="preserve" xmlns="http://www.w3.org/2000/svg" xmlns:cc="http://creativecommons.org/ns#" xmlns:dc="http://purl.org/dc/elements/1.1/" xmlns:rdf="http://www.w3.org/1999/02/22-rdf-syntax-ns#"><g stroke-linejoin="round"><path d="m13 5v3h-5v-3zm-7.9999-1.2e-6v3h-5v-3zm0 3h3v5h-3zm0-7.9999h3v5h-3z" fill="#fff" stroke-width="3.4641" style="paint-order:stroke fill markers"/><path d="m13 6v0.99999h-5v-0.99999zm-7.9999-1.1e-6v0.99999h-5v-0.99999zm0.99999 2h0.99999v5h-0.99999zm0-7.9999h0.99999v5h-0.99999z" stroke-width="2" style="paint-order:stroke fill markers"/></g><g stroke-linejoin="round" stroke-width="3.7795"><path d="m11 31-9.84e-4 -16.996-0.99655-1.0039-1.0025 4.92e-4 -0.00148 17 1.0039 0.99655z" color="#000000" fill="#f8f8f8" stroke-linecap="round" style="-inkscape-stroke:none;paint-order:stroke fill markers"/><path d="m8.9985 12.999v17h1.0039v-17z" color="#000000" style="-inkscape-stroke:none;paint-order:stroke fill markers"/><path d="m31 31 2.46e-4 -16.994-0.99655-1.0039-1.0025 4.91e-4 -0.0015 17 1.0039 0.99655z" color="#000000" fill="#f8f8f8" stroke-linecap="round" style="-inkscape-stroke:none;paint-order:stroke fill markers"/><path d="m29 13.001v17h1.0039v-17z" color="#000000" style="-inkscape-stroke:none;paint-order:stroke fill markers"/></g><path d="m23 29 2e-3 -1.997c0.0021-0.55534-0.44859-1.0061-1.0039-1.0039v-8.0019h2.0005c-0.0021 0.55534 0.44859 1.0061 1.0039 1.0039l1.9975-9.84e-4v-5h-14v5l2 9.84e-4c0.55245-2e-3 0.99867-0.45148 0.99655-1.0039h2.0005v8.0019c-0.55245 2e-3 -0.99867 0.45148-0.99655 1.0039l-4.92e-4 1.997z" color="#000000" fill="#fafafa" stroke-linejoin="round" stroke-width="3.7795" style="-inkscape-stroke:none;paint-order:stroke fill markers"/><path d="m14 15v3h0.99999v-0.99999h4v9.9999h-0.99999v0.99999h4v-0.99999h-0.99999v-9.9999h4v0.99999h0.99999v-3z" style="paint-order:stroke fill markers"/><metadata><rdf:RDF><cc:Work rdf:about=""><dc:creator><cc:Agent><dc:title>Wolthera van Hövell tot Westerflier</dc:title></cc:Agent></dc:creator></cc:Work><cc:License rdf:about="http://creativecommons.org/licenses/by-sa/4.0/"><cc:permits rdf:resource="http://creativecommons.org/ns#Reproduction"/><cc:permits rdf:resource="http://creativecommons.org/ns#Distribution"/><cc:requires rdf:resource="http://creativecommons.org/ns#Notice"/><cc:requires rdf:resource="http://creativecommons.org/ns#Attribution"/><cc:permits rdf:resource="http://creativecommons.org/ns#DerivativeWorks"/><cc:requires rdf:resource="http://creativecommons.org/ns#ShareAlike"/></cc:License></rdf:RDF></metadata></svg>
