<?xml version="1.0" encoding="UTF-8"?>
<!-- Created with Inkscape (http://www.inkscape.org/) -->
<svg width="32" height="32" version="1.1" viewBox="0 0 32 32" xml:space="preserve" xmlns="http://www.w3.org/2000/svg" xmlns:cc="http://creativecommons.org/ns#" xmlns:dc="http://purl.org/dc/elements/1.1/" xmlns:rdf="http://www.w3.org/1999/02/22-rdf-syntax-ns#"><path d="m9.001 31.495c-8.7e-4 0.09796 0.026986 0.19717 0.086052 0.2844 0.15269 0.23063 0.46362 0.29348 0.6939 0.14026 5.8355-3.8903 13.299-3.873 18.418-0.02215 0.22008 0.16744 0.53428 0.12445 0.70128-0.09597 0.06888-0.09053 0.10215-0.19698 0.10211-0.30257l-0.0022-0.9986c-2-0.99999-6.0622-2.9984-9.5-3-3.4378-0.001601-7.4177 0.94516-10.5 3z" color="#000000" fill="#f8f8f8" stroke-linecap="round" stroke-linejoin="round" stroke-width="3.7795" style="-inkscape-stroke:none;paint-order:stroke fill markers"/><g stroke-linejoin="round"><path d="m13 5v3h-5v-3zm-8-1.2e-6v3h-5v-3zm0 3h3v5h-3zm0-8h3v5h-3z" fill="#fff" stroke-width="3.4641" style="paint-order:stroke fill markers"/><path d="m13 6v1h-5v-1zm-8-1.2e-6v1h-5v-1zm1 2h1v5h-1zm0-8h1v5h-1z" stroke-width="2" style="paint-order:stroke fill markers"/></g><path d="m19.001 27.01c-3.3513 0-6.7063 1.0211-9.781 3.0709-0.22809 0.15506-0.28755 0.46554-0.13287 0.6939 0.15269 0.23063 0.46362 0.29348 0.6939 0.14025 2.9365-1.9577 6.0596-2.9228 9.219-2.9153 3.1353 0.0074 6.3068 0.97261 9.2209 2.9153 0.23028 0.15322 0.54121 0.09038 0.6939-0.14025 0.15322-0.23028 0.09038-0.54121-0.14025-0.6939-3.0747-2.0498-6.4223-3.0709-9.7736-3.0709z" color="#000000" stroke-linecap="round" stroke-width="3.7795" style="-inkscape-stroke:none;paint-order:stroke fill markers"/><g transform="translate(-.26458 -.79375)"><path d="m22.265 26.794 2e-3 -1.997c0.0021-0.55534-0.4486-1.0061-1.0039-1.0039v-8.0019h2.0005c-0.0021 0.55534 0.4486 1.0061 1.0039 1.0039l1.9975-9.84e-4v-5h-14v5l2 9.84e-4c0.55246-2e-3 0.99868-0.45148 0.99655-1.0039h2.0005v8.0019c-0.55245 2e-3 -0.99868 0.45148-0.99655 1.0039l-4.92e-4 1.997z" color="#000000" fill="#fafafa" stroke-linejoin="round" stroke-width="3.7795" style="-inkscape-stroke:none;paint-order:stroke fill markers"/><path d="m13.265 12.794v3h1v-1h4v10h-1v1h4v-1h-1v-10h4v1h1v-3z" style="paint-order:stroke fill markers"/></g><metadata><rdf:RDF><cc:Work rdf:about=""><dc:creator><cc:Agent><dc:title>Wolthera van Hövell tot Westerflier</dc:title></cc:Agent></dc:creator></cc:Work><cc:License rdf:about="http://creativecommons.org/licenses/by-sa/4.0/"><cc:permits rdf:resource="http://creativecommons.org/ns#Reproduction"/><cc:permits rdf:resource="http://creativecommons.org/ns#Distribution"/><cc:requires rdf:resource="http://creativecommons.org/ns#Notice"/><cc:requires rdf:resource="http://creativecommons.org/ns#Attribution"/><cc:permits rdf:resource="http://creativecommons.org/ns#DerivativeWorks"/><cc:requires rdf:resource="http://creativecommons.org/ns#ShareAlike"/></cc:License></rdf:RDF></metadata></svg>
