<?xml version="1.0" encoding="UTF-8"?>
<!-- Created with Inkscape (http://www.inkscape.org/) -->
<svg width="32" height="32" version="1.1" viewBox="0 0 32 32" xml:space="preserve" xmlns="http://www.w3.org/2000/svg" xmlns:cc="http://creativecommons.org/ns#" xmlns:dc="http://purl.org/dc/elements/1.1/" xmlns:rdf="http://www.w3.org/1999/02/22-rdf-syntax-ns#"><g stroke-linejoin="round"><path d="m13 4.9999v3h-4.9999v-3zm-7.9999-1.1e-6v3h-4.9999v-3zm0 3h3v4.9999h-3zm0-7.9999h3v4.9999h-3z" fill="#fff" stroke-width="3.464" style="paint-order:stroke fill markers"/><path d="m13 5.9999v0.99998h-4.9999v-0.99998zm-7.9999-1.2e-6v0.99998h-4.9999v-0.99998zm0.99998 2h0.99998v4.9999h-0.99998zm0-7.9999h0.99998v4.9999h-0.99998z" stroke-width="2" style="paint-order:stroke fill markers"/></g><g stroke-linejoin="round" stroke-width="3.7795"><path d="m10.999 10.999 1.0039 1.0039 17.997-3e-3 2e-6 -1.001-0.99654-0.99654-18.003-0.00246z" color="#000000" fill="#f8f8f8" stroke-linecap="round" style="-inkscape-stroke:none;paint-order:stroke fill markers"/><path d="m10.999 10.002v0.99654h18.004v-0.99654z" color="#000000" style="-inkscape-stroke:none;paint-order:stroke fill markers"/><path d="m10.999 30.997 1.0007 1.003h18v-1.003l-0.99654-0.99654-18.003-0.0025z" color="#000000" fill="#f8f8f8" stroke-linecap="round" style="-inkscape-stroke:none;paint-order:stroke fill markers"/><path d="m10.999 30v0.99654h18.004v-0.99654z" color="#000000" style="-inkscape-stroke:none;paint-order:stroke fill markers"/></g><path d="m23 29 2e-3 -1.997c0.0021-0.55533-0.44859-1.0061-1.0039-1.0039v-8.0018h2.0005c-0.0021 0.55533 0.44859 1.0061 1.0039 1.0039l1.9975-9.85e-4v-4.9999h-14v4.9999l2 9.85e-4c0.55245-2e-3 0.99866-0.45148 0.99654-1.0039h2.0005v8.0018c-0.55245 2e-3 -0.99866 0.45148-0.99654 1.0039l-4.92e-4 1.997z" color="#000000" fill="#fafafa" stroke-linejoin="round" stroke-width="3.7795" style="-inkscape-stroke:none;paint-order:stroke fill markers"/><path d="m14 15v3h0.99998v-0.99998h3.9999v9.9998h-0.99998v0.99998h3.9999v-0.99998h-0.99998v-9.9998h3.9999v0.99998h0.99998v-3z" style="paint-order:stroke fill markers"/><metadata><rdf:RDF><cc:Work rdf:about=""><dc:creator><cc:Agent><dc:title>Wolthera van Hövell tot Westerflier</dc:title></cc:Agent></dc:creator></cc:Work><cc:License rdf:about="http://creativecommons.org/licenses/by-sa/4.0/"><cc:permits rdf:resource="http://creativecommons.org/ns#Reproduction"/><cc:permits rdf:resource="http://creativecommons.org/ns#Distribution"/><cc:requires rdf:resource="http://creativecommons.org/ns#Notice"/><cc:requires rdf:resource="http://creativecommons.org/ns#Attribution"/><cc:permits rdf:resource="http://creativecommons.org/ns#DerivativeWorks"/><cc:requires rdf:resource="http://creativecommons.org/ns#ShareAlike"/></cc:License></rdf:RDF></metadata></svg>
