<?xml version="1.0" encoding="UTF-8"?>
<!-- Created with Inkscape (http://www.inkscape.org/) -->
<svg width="22" height="22" version="1.1" viewBox="0 0 22 22" xml:space="preserve" xmlns="http://www.w3.org/2000/svg" xmlns:cc="http://creativecommons.org/ns#" xmlns:dc="http://purl.org/dc/elements/1.1/" xmlns:rdf="http://www.w3.org/1999/02/22-rdf-syntax-ns#"><metadata><rdf:RDF><cc:Work rdf:about=""><dc:description>Adapted from Breeze cursor h_caret</dc:description><dc:contributor><cc:Agent><dc:title>Wolthera van Hövell tot Westerflier</dc:title></cc:Agent></dc:contributor></cc:Work><cc:License rdf:about="http://creativecommons.org/licenses/by-sa/4.0/"><cc:permits rdf:resource="http://creativecommons.org/ns#Reproduction"/><cc:permits rdf:resource="http://creativecommons.org/ns#Distribution"/><cc:requires rdf:resource="http://creativecommons.org/ns#Notice"/><cc:requires rdf:resource="http://creativecommons.org/ns#Attribution"/><cc:permits rdf:resource="http://creativecommons.org/ns#DerivativeWorks"/><cc:requires rdf:resource="http://creativecommons.org/ns#ShareAlike"/></cc:License></rdf:RDF></metadata><g stroke-linejoin="round"><path d="m19.3 4.1266c-0.36004 0.12136-0.67223 0.38331-0.84155 0.72344l-4.3554 8.7034-3.1152-4.8426a0.95437 0.95437 0 0 0-0.0074-0.00737c-0.41391-0.63116-1.3563-0.83335-1.9931-0.42817-0.64548 0.40931-0.86369 1.372-0.4503 2.0153l4.503 6.9982c0.27727 0.43282 0.80089 0.69482 1.314 0.66438 0.51311-0.03044 0.99389-0.35684 1.218-0.81941v0.01478l5.4996-10.999a0.95437 0.95437 0 0 0 0-0.00737c0.34008-0.68523 0.02328-1.6138-0.66438-1.9489a0.95437 0.95437 0 0 0-0.0074 0c-0.3396-0.16502-0.74228-0.18739-1.0999-0.066439z" fill="#fff" stroke-dashoffset=".8" stroke-linecap="round" stroke-miterlimit="4.3" stroke-width="3.7796" style="paint-order:stroke markers fill"/><path d="m19.986 5.0494a0.50001 0.50001 0 0 0-0.67177 0.22884l-5.1084 10.209-4.0232-6.26a0.50001 0.50001 0 0 0-0.68653-0.14764 0.50001 0.50001 0 0 0-0.15502 0.69391l4.503 6.9982a0.50006 0.50006 0 0 0 0.87108-0.05167l5.4996-10.999a0.50001 0.50001 0 0 0-0.22884-0.67177z" color="#000000" stroke-dashoffset=".8" stroke-linecap="round" stroke-miterlimit="4.3" stroke-width="3.7796" style="-inkscape-stroke:none;paint-order:stroke markers fill"/><path d="m2 4e-6a1.0001 1.0001 0 0 0-1 1v1a1.0001 1.0001 0 0 0 0.98438 1s0.45788 0.00943 0.87695 0.068359c0.062722 0.00882 0.081283 0.0181 0.13867 0.029297v15.805c-0.057391 0.0112-0.075949 0.02048-0.13867 0.0293-0.41908 0.05893-0.87695 0.06836-0.87695 0.06836a1.0001 1.0001 0 0 0-0.98438 1v1a1.0001 1.0001 0 0 0 1 1h1.75c0.42029 0 0.54773-0.18821 0.75-0.33594 0.21257 0.14659 0.35259 0.33594 0.75 0.33594h1.75a1.0001 1.0001 0 0 0 1-1v-1a1.0001 1.0001 0 0 0-0.98438-1s-0.45788-0.0094-0.87695-0.06836c-0.06272-0.0088-0.08128-0.0181-0.13867-0.0293v-15.805c0.05739-0.011197 0.07595-0.020478 0.13867-0.029297 0.41907-0.058926 0.87695-0.068359 0.87695-0.068359a1.0001 1.0001 0 0 0 0.98438-1v-1a1.0001 1.0001 0 0 0-1-1h-1.75c-0.39741 0-0.53743 0.18935-0.75 0.33594-0.20227-0.14773-0.32971-0.33594-0.75-0.33594z" color="#000000" fill="#fff" stroke-width="2" style="-inkscape-stroke:none"/></g><path d="m2 1v1s2 0.0312 2 0.53125v16.937c0 0.5-2 0.53125-2 0.53125v1h1.75c0.36355 0 0.75-0.53125 0.75-0.53125s0.3533 0.53125 0.75 0.53125h1.75v-1s-2-0.03122-2-0.53125v-16.937c0-0.50005 2-0.53125 2-0.53125v-1h-1.75c-0.3967 0-0.75 0.53125-0.75 0.53125s-0.38645-0.53125-0.75-0.53125z"/></svg>
