<?xml version="1.0" encoding="UTF-8"?>
<!-- Created with Inkscape (http://www.inkscape.org/) -->
<svg width="32" height="32" version="1.1" viewBox="0 0 32 32" xml:space="preserve" xmlns="http://www.w3.org/2000/svg" xmlns:cc="http://creativecommons.org/ns#" xmlns:dc="http://purl.org/dc/elements/1.1/" xmlns:rdf="http://www.w3.org/1999/02/22-rdf-syntax-ns#"><g stroke-linejoin="round"><path d="m13 4.9999v3h-4.9999v-3zm-7.9999-1.2e-6v3h-4.9999v-3zm0 3h3v4.9999h-3zm0-7.9999h3v4.9999h-3z" fill="#fff" stroke-width="3.464" style="paint-order:stroke fill markers"/><path d="m13 5.9999v0.99998h-4.9999v-0.99998zm-7.9999-1.1e-6v0.99998h-4.9999v-0.99998zm0.99998 2h0.99998v4.9999h-0.99998zm0-7.9999h0.99998v4.9999h-0.99998z" stroke-width="2" style="paint-order:stroke fill markers"/></g><path d="m18.499 8.0018c-2.6578 0-4.4321 1.1399-5.9571 2.6648-1.525 1.525-2.5393 3.4408-2.5393 5.3296v16.004h11.995c1.8774 1e-6 3.9993-0.96185 5.7799-2.5246 1.7806-1.5627 3.21-3.8119 3.2185-6.4738v-15h-0.99654zm0 2.0005h10.504v12.999c-0.0086 1.9388-1.0827 3.6905-2.5467 4.9753-1.4657 1.2863-3.336 2.0226-4.4586 2.0226h-9.9949v-14.003c0-1.1111 0.73118-2.6874 1.9562-3.9123 1.225-1.225 2.8732-2.0817 4.5398-2.0817z" color="#000000" fill="#fff" stroke-width="3.7795" style="-inkscape-stroke:none;paint-order:stroke fill markers"/><path d="m17.997 8.0018c-1.9404 0-3.9016 1.0744-5.4108 2.5836-1.5092 1.5092-2.5836 3.4704-2.5836 5.4108v15h11.995c1.6944 1e-6 3.6365-0.93311 5.2115-2.3769 1.5751-1.4438 2.7903-3.4301 2.7903-5.6175v-15h-0.50196zm0 0.99654h11.006v14.003c0 1.8125-1.0406 3.5732-2.4655 4.8794-1.4249 1.3061-3.2343 2.1186-4.5398 2.1186h-10.999v-14.003c0-1.5595 0.92261-3.3364 2.2884-4.7022 1.3657-1.3657 3.1501-2.2957 4.7096-2.2957z" color="#000000" fill="#050505" stroke-width="3.7795" style="-inkscape-stroke:none;paint-order:stroke fill markers"/><g transform="translate(.26458)"><path d="m23.735 29 2e-3 -1.997c0.0021-0.55533-0.44859-1.0061-1.0039-1.0039v-8.0018h2.0005c-0.0021 0.55533 0.44859 1.0061 1.0039 1.0039l1.9975-9.84e-4v-4.9999h-14v4.9999l2 9.84e-4c0.55245-2e-3 0.99866-0.45148 0.99654-1.0039h2.0005v8.0018c-0.55245 2e-3 -0.99866 0.45148-0.99654 1.0039l-4.92e-4 1.997z" color="#000000" fill="#fafafa" stroke-linejoin="round" stroke-width="3.7795" style="-inkscape-stroke:none;paint-order:stroke fill markers"/><path d="m14.735 15v3h0.99998v-0.99998h3.9999v9.9998h-0.99998v0.99998h3.9999v-0.99998h-0.99998v-9.9998h3.9999v0.99998h0.99998v-3z" style="paint-order:stroke fill markers"/></g><metadata><rdf:RDF><cc:Work rdf:about=""><dc:creator><cc:Agent><dc:title>Wolthera van Hövell tot Westerflier</dc:title></cc:Agent></dc:creator></cc:Work><cc:License rdf:about="http://creativecommons.org/licenses/by-sa/4.0/"><cc:permits rdf:resource="http://creativecommons.org/ns#Reproduction"/><cc:permits rdf:resource="http://creativecommons.org/ns#Distribution"/><cc:requires rdf:resource="http://creativecommons.org/ns#Notice"/><cc:requires rdf:resource="http://creativecommons.org/ns#Attribution"/><cc:permits rdf:resource="http://creativecommons.org/ns#DerivativeWorks"/><cc:requires rdf:resource="http://creativecommons.org/ns#ShareAlike"/></cc:License></rdf:RDF></metadata></svg>
