<?xml version="1.0" encoding="UTF-8"?>
<!-- Created with Inkscape (http://www.inkscape.org/) -->
<svg width="22" height="22" version="1.1" viewBox="0 0 22 22" xml:space="preserve" xmlns="http://www.w3.org/2000/svg" xmlns:cc="http://creativecommons.org/ns#" xmlns:dc="http://purl.org/dc/elements/1.1/" xmlns:rdf="http://www.w3.org/1999/02/22-rdf-syntax-ns#"><g><path d="m22 8.5a1.0001 1.0001 0 0 0-1-1h-1a1.0001 1.0001 0 0 0-1 0.98438s-0.0094 0.45788-0.06836 0.87695c-0.0088 0.062722-0.0181 0.081283-0.0293 0.13867h-15.805c-0.0112-0.057391-0.020477-0.075949-0.029297-0.13867-0.05893-0.41908-0.068359-0.87695-0.068359-0.87695a1.0001 1.0001 0 0 0-1-0.98438h-1a1.0001 1.0001 0 0 0-1 1v1.75c0 0.42029 0.18821 0.54773 0.33594 0.75-0.14659 0.21257-0.33594 0.35259-0.33594 0.75v1.75a1.0001 1.0001 0 0 0 1 1h1a1.0001 1.0001 0 0 0 1-0.98438s0.0094-0.45788 0.068359-0.87695c0.0088-0.06272 0.018097-0.08128 0.029297-0.13867h15.805c0.0112 0.05739 0.02048 0.07595 0.0293 0.13867 0.058923 0.41907 0.068356 0.87695 0.068356 0.87695a1.0001 1.0001 0 0 0 1 0.98438h1a1.0001 1.0001 0 0 0 1-1v-1.75c0-0.39741-0.18935-0.53743-0.33594-0.75 0.14773-0.20227 0.33594-0.32971 0.33594-0.75z" color="#000000" fill="#fff" stroke-linejoin="round" stroke-width="2" style="-inkscape-stroke:none"/><path d="m21 8.5h-1s-0.0312 2-0.53125 2h-16.937c-0.5 0-0.53125-2-0.53125-2h-1v1.75c0 0.36355 0.53125 0.75 0.53125 0.75s-0.53125 0.3533-0.53125 0.75v1.75h1s0.03122-2 0.53125-2h16.937c0.50005 0 0.53125 2 0.53125 2h1v-1.75c0-0.3967-0.53125-0.75-0.53125-0.75s0.53125-0.38645 0.53125-0.75z"/></g><metadata><rdf:RDF><cc:Work rdf:about=""><dc:description>Adapted from Breeze cursor h_caret</dc:description><dc:contributor><cc:Agent><dc:title>Wolthera van Hövell tot Westerflier</dc:title></cc:Agent></dc:contributor></cc:Work><cc:License rdf:about="http://creativecommons.org/licenses/by-sa/4.0/"><cc:permits rdf:resource="http://creativecommons.org/ns#Reproduction"/><cc:permits rdf:resource="http://creativecommons.org/ns#Distribution"/><cc:requires rdf:resource="http://creativecommons.org/ns#Notice"/><cc:requires rdf:resource="http://creativecommons.org/ns#Attribution"/><cc:permits rdf:resource="http://creativecommons.org/ns#DerivativeWorks"/><cc:requires rdf:resource="http://creativecommons.org/ns#ShareAlike"/></cc:License></rdf:RDF></metadata></svg>
