<?xml version="1.0" encoding="UTF-8"?>
<!-- Created with Inkscape (http://www.inkscape.org/) -->
<svg width="32" height="32" version="1.1" viewBox="0 0 32 32" xml:space="preserve" xmlns="http://www.w3.org/2000/svg" xmlns:cc="http://creativecommons.org/ns#" xmlns:dc="http://purl.org/dc/elements/1.1/" xmlns:rdf="http://www.w3.org/1999/02/22-rdf-syntax-ns#"><path d="m23 29 2e-3 -1.997c0.0021-0.55534-0.4486-1.0061-1.0039-1.0039v-8.002h2.0005c-0.0021 0.55534 0.4486 1.0061 1.0039 1.0039l1.9975-9.84e-4v-5h-14v5l2 9.84e-4c0.55246-2e-3 0.99868-0.45148 0.99656-1.0039h2.0005v8.002c-0.55246 2e-3 -0.99868 0.45148-0.99656 1.0039l-4.92e-4 1.997z" color="#000000" fill="#fafafa" stroke-linejoin="round" stroke-width="3.7795" style="-inkscape-stroke:none;paint-order:stroke fill markers"/><path d="m14 15v3h1v-1h4v10h-1v1h4v-1h-1v-10h4v1h1v-3z" style="paint-order:stroke fill markers"/><g stroke-linejoin="round"><path d="m13 5v3h-5v-3zm-8-1.2e-6v3h-5v-3zm0 3h3v5h-3zm0-8h3v5h-3z" fill="#fff" stroke-width="3.4641" style="paint-order:stroke fill markers"/><path d="m13 6v1h-5v-1zm-8-1.1e-6v1h-5v-1zm1 2h1v5h-1zm0-8h1v5h-1z" stroke-width="2" style="paint-order:stroke fill markers"/></g><metadata><rdf:RDF><cc:Work rdf:about=""><dc:creator><cc:Agent><dc:title>Wolthera van Hövell tot Westerflier</dc:title></cc:Agent></dc:creator></cc:Work><cc:License rdf:about="http://creativecommons.org/licenses/by-sa/4.0/"><cc:permits rdf:resource="http://creativecommons.org/ns#Reproduction"/><cc:permits rdf:resource="http://creativecommons.org/ns#Distribution"/><cc:requires rdf:resource="http://creativecommons.org/ns#Notice"/><cc:requires rdf:resource="http://creativecommons.org/ns#Attribution"/><cc:permits rdf:resource="http://creativecommons.org/ns#DerivativeWorks"/><cc:requires rdf:resource="http://creativecommons.org/ns#ShareAlike"/></cc:License></rdf:RDF></metadata></svg>
