<?xml version="1.0" encoding="UTF-8"?>
<!-- Created with Inkscape (http://www.inkscape.org/) -->
<svg width="31" height="31" version="1.1" viewBox="0 0 31 31" xml:space="preserve" xmlns="http://www.w3.org/2000/svg" xmlns:cc="http://creativecommons.org/ns#" xmlns:dc="http://purl.org/dc/elements/1.1/" xmlns:rdf="http://www.w3.org/1999/02/22-rdf-syntax-ns#"><g stroke-linecap="round" stroke-linejoin="round"><path d="m14 1v9.5l1.5 1.5 1.5-1.5v-9.5h-3zm-13 13v3h9.5l1.5-1.5-1.5-1.5h-9.5zm19.5 0-1.5 1.5 1.5 1.5h9.5v-3h-9.5zm-5 5-1.5 1.5v9.5h3v-9.5l-1.5-1.5z" fill="#fff" style="paint-order:markers fill stroke"/><path d="m15 2v9h1v-9h-1zm-13 13v1h9v-1h-9zm18 0v1h9v-1h-9zm-5 5v9h1v-9h-1z" style="paint-order:markers fill stroke"/></g><metadata><rdf:RDF><cc:Work rdf:about=""><dc:contributor><cc:Agent><dc:title>Wolthera van Hövell tot Westerflier (Vectorization)
</dc:title></cc:Agent></dc:contributor><dc:description>Based on GIMP crosshairs</dc:description></cc:Work><cc:License rdf:about="http://creativecommons.org/licenses/by-sa/4.0/"><cc:permits rdf:resource="http://creativecommons.org/ns#Reproduction"/><cc:permits rdf:resource="http://creativecommons.org/ns#Distribution"/><cc:requires rdf:resource="http://creativecommons.org/ns#Notice"/><cc:requires rdf:resource="http://creativecommons.org/ns#Attribution"/><cc:permits rdf:resource="http://creativecommons.org/ns#DerivativeWorks"/><cc:requires rdf:resource="http://creativecommons.org/ns#ShareAlike"/></cc:License></rdf:RDF></metadata></svg>
