<?xml version="1.0" encoding="UTF-8"?>
<!-- Created with Inkscape (http://www.inkscape.org/) -->
<svg width="31" height="31" version="1.1" viewBox="0 0 31 31" xml:space="preserve" xmlns="http://www.w3.org/2000/svg" xmlns:cc="http://creativecommons.org/ns#" xmlns:dc="http://purl.org/dc/elements/1.1/" xmlns:rdf="http://www.w3.org/1999/02/22-rdf-syntax-ns#"><g stroke-linecap="round" stroke-linejoin="round"><path d="m15.5 14c-0.8225 0-1.5 0.6775-1.5 1.5s0.6775 1.5 1.5 1.5 1.5-0.6775 1.5-1.5-0.6775-1.5-1.5-1.5zm0 1c0.28206 0 0.5 0.21794 0.5 0.5s-0.21794 0.5-0.5 0.5-0.5-0.21794-0.5-0.5 0.21794-0.5 0.5-0.5z" color="#000000" fill="#fff" style="-inkscape-stroke:none;paint-order:markers fill stroke"/><path d="m15.5 13c-1.3748 0-2.5 1.1252-2.5 2.5s1.1252 2.5 2.5 2.5 2.5-1.1252 2.5-2.5-1.1252-2.5-2.5-2.5zm0 1c0.83435 0 1.5 0.66565 1.5 1.5s-0.66565 1.5-1.5 1.5-1.5-0.66565-1.5-1.5 0.66565-1.5 1.5-1.5z" color="#000000" style="-inkscape-stroke:none;paint-order:markers fill stroke"/></g><metadata><rdf:RDF><cc:Work rdf:about=""><dc:contributor><cc:Agent><dc:title>Wolthera van Hövell tot Westerflier (Vectorization)
</dc:title></cc:Agent></dc:contributor><dc:creator><cc:Agent><dc:title>David Revoy</dc:title></cc:Agent></dc:creator></cc:Work><cc:License rdf:about="http://creativecommons.org/licenses/by-sa/4.0/"><cc:permits rdf:resource="http://creativecommons.org/ns#Reproduction"/><cc:permits rdf:resource="http://creativecommons.org/ns#Distribution"/><cc:requires rdf:resource="http://creativecommons.org/ns#Notice"/><cc:requires rdf:resource="http://creativecommons.org/ns#Attribution"/><cc:permits rdf:resource="http://creativecommons.org/ns#DerivativeWorks"/><cc:requires rdf:resource="http://creativecommons.org/ns#ShareAlike"/></cc:License></rdf:RDF></metadata></svg>
