<?xml version="1.0" encoding="UTF-8"?>
<!-- Created with Inkscape (http://www.inkscape.org/) -->
<svg width="32" height="32" version="1.1" viewBox="0 0 32 32" xml:space="preserve" xmlns="http://www.w3.org/2000/svg" xmlns:cc="http://creativecommons.org/ns#" xmlns:dc="http://purl.org/dc/elements/1.1/" xmlns:rdf="http://www.w3.org/1999/02/22-rdf-syntax-ns#"><rect x="11" y="12" width="19" height="18" fill="#fff" style="paint-order:markers stroke fill"/><rect x="12" y="13" width="17" height="16" style="paint-order:markers stroke fill"/><g transform="translate(-6,-1)" stroke-linejoin="round"><path d="m11.5 2.5-3.2676 3.8594c-0.54302 0.65115-0.080284 1.6402 0.76758 1.6406h1v3h-1c-0.84786 4.15e-4 -1.3106 0.98948-0.76758 1.6406l3.2676 3.8594 3.2676-3.8594c0.54302-0.65115 0.080284-1.6402-0.76758-1.6406h-1v-3h1c0.84786-4.149e-4 1.3106-0.98948 0.76758-1.6406z" color="#000000" fill="#fff" style="-inkscape-stroke:none;paint-order:markers stroke fill"/><path d="m11.5 4-2.5 3h2v5h-2l2.5 3 2.5-3h-2v-5h2z" color="#000000" stroke-width="2" style="-inkscape-stroke:none;paint-order:markers stroke fill"/></g><g><path d="m13 28 15-14v14z" fill="#fff" style="paint-order:markers fill stroke"/><rect x="21" y="24" width="5" height="1" style="paint-order:markers fill stroke"/><path d="m16 15v2h-2v1h2v2h1v-2h2v-1h-2v-2h-1z" fill="#fff" style="paint-order:markers fill stroke"/></g><metadata><rdf:RDF><cc:Work rdf:about=""><dc:contributor><cc:Agent><dc:title>Wolthera van Hövell tot Westerflier (Vectorization)
Timothée Giet</dc:title></cc:Agent></dc:contributor></cc:Work><cc:License rdf:about="http://creativecommons.org/licenses/by-sa/4.0/"><cc:permits rdf:resource="http://creativecommons.org/ns#Reproduction"/><cc:permits rdf:resource="http://creativecommons.org/ns#Distribution"/><cc:requires rdf:resource="http://creativecommons.org/ns#Notice"/><cc:requires rdf:resource="http://creativecommons.org/ns#Attribution"/><cc:permits rdf:resource="http://creativecommons.org/ns#DerivativeWorks"/><cc:requires rdf:resource="http://creativecommons.org/ns#ShareAlike"/></cc:License></rdf:RDF></metadata></svg>
