<?xml version="1.0" encoding="UTF-8"?>
<!-- Created with Inkscape (http://www.inkscape.org/) -->
<svg width="32" height="32" version="1.1" viewBox="0 0 32 32" xml:space="preserve" xmlns="http://www.w3.org/2000/svg" xmlns:cc="http://creativecommons.org/ns#" xmlns:dc="http://purl.org/dc/elements/1.1/" xmlns:rdf="http://www.w3.org/1999/02/22-rdf-syntax-ns#"><g stroke-linejoin="round"><path d="m11.5 2.5-3.2676 3.8594c-0.54302 0.65115-0.080284 1.6402 0.76758 1.6406h1v2h-2v-1c-4.148e-4 -0.84786-0.98947-1.3106-1.6406-0.76758l-3.8594 3.2676 3.8594 3.2676c0.65115 0.54302 1.6402 0.080284 1.6406-0.76758v-1h2v2h-1c-0.84786 4.15e-4 -1.3106 0.98948-0.76758 1.6406l3.2676 3.8594 3.2676-3.8594c0.54302-0.65115 0.080284-1.6402-0.76758-1.6406h-1v-2h2v1c4.15e-4 0.84786 0.98948 1.3106 1.6406 0.76758l3.8594-3.2676-3.8594-3.2676c-0.65115-0.54302-1.6402-0.080284-1.6406 0.76758v1h-2v-2h1c0.84786-4.149e-4 1.3106-0.98948 0.76758-1.6406z" color="#000000" fill="#fff" style="-inkscape-stroke:none;paint-order:markers stroke fill"/><path d="m11.5 4-2.5 3h2v4h-4v-2l-3 2.5 3 2.5v-2h4v4h-2l2.5 3 2.5-3h-2v-4h4v2l3-2.5-3-2.5v2h-4v-4h2z" color="#000000" stroke-width="2" style="-inkscape-stroke:none;paint-order:markers stroke fill"/></g><rect x="18" y="18" width="10" height="10" fill="#fff" style="paint-order:markers stroke fill"/><path d="m19 19v1 1h1v-1h1v-1h-1-1zm3 0v1h2v-1h-2zm3 0v1h1v1h1v-2h-2zm-6 3v2h1v-2h-1zm7 0v2h1v-2h-1zm-7 3v1 1h2v-1h-1v-1h-1zm7 0v1h-1v1h2v-1-1h-1zm-4 1v1h2v-1h-2z" style="paint-order:markers stroke fill"/><metadata><rdf:RDF><cc:Work rdf:about=""><dc:contributor><cc:Agent><dc:title>Wolthera van Hövell tot Westerflier (Vectorization)
Timothée Giet
Andrei Rudenko</dc:title></cc:Agent></dc:contributor></cc:Work><cc:License rdf:about="http://creativecommons.org/licenses/by-sa/4.0/"><cc:permits rdf:resource="http://creativecommons.org/ns#Reproduction"/><cc:permits rdf:resource="http://creativecommons.org/ns#Distribution"/><cc:requires rdf:resource="http://creativecommons.org/ns#Notice"/><cc:requires rdf:resource="http://creativecommons.org/ns#Attribution"/><cc:permits rdf:resource="http://creativecommons.org/ns#DerivativeWorks"/><cc:requires rdf:resource="http://creativecommons.org/ns#ShareAlike"/></cc:License></rdf:RDF></metadata></svg>
