<?xml version="1.0" encoding="UTF-8" standalone="no"?>
<!-- Created with Inkscape (http://www.inkscape.org/) -->

<svg
   width="24"
   height="24"
   viewBox="0 0 24 24"
   version="1.1"
   id="svg5"
   xml:space="preserve"
   inkscape:version="1.2.2 (b0a8486541, 2022-12-01)"
   sodipodi:docname="move_tool.svg"
   xmlns:inkscape="http://www.inkscape.org/namespaces/inkscape"
   xmlns:sodipodi="http://sodipodi.sourceforge.net/DTD/sodipodi-0.dtd"
   xmlns="http://www.w3.org/2000/svg"
   xmlns:svg="http://www.w3.org/2000/svg"
   xmlns:rdf="http://www.w3.org/1999/02/22-rdf-syntax-ns#"
   xmlns:cc="http://creativecommons.org/ns#"
   xmlns:dc="http://purl.org/dc/elements/1.1/"><sodipodi:namedview
     id="namedview7"
     pagecolor="#818181"
     bordercolor="#666666"
     borderopacity="1.0"
     inkscape:showpageshadow="2"
     inkscape:pageopacity="0"
     inkscape:pagecheckerboard="0"
     inkscape:deskcolor="#d1d1d1"
     inkscape:document-units="px"
     showgrid="true"
     inkscape:zoom="17.576625"
     inkscape:cx="3.1576028"
     inkscape:cy="11.321855"
     inkscape:window-width="1920"
     inkscape:window-height="1010"
     inkscape:window-x="0"
     inkscape:window-y="0"
     inkscape:window-maximized="1"
     inkscape:current-layer="layer1"
     showguides="true"><inkscape:grid
       type="xygrid"
       id="grid4281"
       empspacing="4"
       spacingx="0.13229166"
       spacingy="0.13229166"
       originx="0"
       originy="0" /></sodipodi:namedview><defs
     id="defs2" /><g
     inkscape:label="Layer 1"
     inkscape:groupmode="layer"
     id="layer1"><path
       style="color:#000000;fill:#ffffff;stroke-linejoin:round;-inkscape-stroke:none;paint-order:stroke fill markers"
       d="M 5.3828125,7.0761719 C 5.0091157,6.921401 4.5789845,7.0069647 4.2929687,7.2929687 L 0.29296875,11.292969 c -0.39036806,0.39053 -0.39036806,1.023532 0,1.414062 l 3.99999995,4 C 4.9229632,17.336587 5.9996504,16.890637 6,16 v -2 l 8.000001,10e-7 0,-4 L 6,10 V 8 C 5.9999738,7.5955961 5.7564011,7.2310077 5.3828125,7.0761719 Z"
       id="path15575"
       sodipodi:nodetypes="cccccccccccc"
       inkscape:label="arrow-stroke" /><path
       style="color:#000000;fill:#ffffff;stroke-linejoin:round;-inkscape-stroke:none;paint-order:stroke fill markers"
       d="M 16.923829,5.3828129 C 17.0786,5.0091161 16.993039,4.5789849 16.707033,4.2929691 L 12.707032,0.29296905 c -0.39053,-0.3903681 -1.023532,-0.3903681 -1.414062,0 L 7.2929695,4.2929691 c -0.629556,0.6299945 -0.183606,1.7066817 0.707031,1.7070313 h 2.0000005 l -1.5e-6,8.0000006 H 14 l 10e-7,-8.0000006 h 2 c 0.404404,-2.62e-5 0.768993,-0.2435989 0.923828,-0.6171875 z"
       id="path15575-5"
       sodipodi:nodetypes="cccccccccccc"
       inkscape:label="arrow-stroke" /><path
       style="color:#000000;fill:#ffffff;stroke-linejoin:round;-inkscape-stroke:none;paint-order:stroke fill markers"
       d="m 18.617188,16.92383 c 0.373697,0.154771 0.803828,0.06921 1.089844,-0.216797 l 3.999999,-4 c 0.390368,-0.390531 0.390368,-1.023533 0,-1.414063 L 19.707032,7.2929696 C 19.077037,6.6634136 18.00035,7.1093636 18.000001,8.0000006 V 10 l -8,-6e-7 v 4.0000016 l 8,1e-6 v 2 c 2.6e-5,0.404403 0.243599,0.768992 0.617187,0.923828 z"
       id="path15575-6"
       sodipodi:nodetypes="cccccccccccc"
       inkscape:label="arrow-stroke" /><path
       style="color:#000000;fill:#ffffff;stroke-linejoin:round;-inkscape-stroke:none;paint-order:stroke fill markers"
       d="m 7.0761714,18.617189 c -0.1547709,0.373696 -0.069207,0.803828 0.2167968,1.089843 l 4.0000008,4 c 0.39053,0.390368 1.023532,0.390368 1.414062,0 l 4,-4 C 17.336587,19.077038 16.890637,18.000351 16,18.000001 h -2 l 10e-7,-8 h -4 l -1.4e-6,8 H 7.9999995 c -0.4044039,2.6e-5 -0.7689923,0.243599 -0.9238281,0.617188 z"
       id="path15575-2"
       sodipodi:nodetypes="cccccccccccc"
       inkscape:label="arrow-stroke" /><path
       style="color:#000000;fill:#000000;stroke-width:2;stroke-linejoin:round;-inkscape-stroke:none;paint-order:stroke fill markers"
       d="m 5,8 -4,4 4,4 v -3 h 8 V 11 H 5 Z"
       id="path15577"
       inkscape:label="arrow-fill" /><path
       style="color:#000000;fill:#000000;stroke-width:2;stroke-linejoin:round;-inkscape-stroke:none;paint-order:stroke fill markers"
       d="m 16.000001,5.0000008 -4,-4 -4.0000002,4 h 3.0000002 v 8.0000002 h 2 V 5.0000008 Z"
       id="path15577-3"
       inkscape:label="arrow-fill" /><path
       style="color:#000000;fill:#000000;stroke-width:2;stroke-linejoin:round;-inkscape-stroke:none;paint-order:stroke fill markers"
       d="m 19.000001,16.000001 4,-4 -4,-4.0000004 v 3.0000004 h -8 v 2 h 8 z"
       id="path15577-6"
       inkscape:label="arrow-fill" /><path
       style="color:#000000;fill:#000000;stroke-width:2;stroke-linejoin:round;-inkscape-stroke:none;paint-order:stroke fill markers"
       d="m 8.0000008,19.000001 4.0000002,4 4,-4 h -3 v -8 h -2 v 8 z"
       id="path15577-7"
       inkscape:label="arrow-fill" /></g><metadata
     id="metadata15516"><rdf:RDF><cc:Work
         rdf:about=""><dc:creator><cc:Agent><dc:title>Timothée Giet</dc:title></cc:Agent></dc:creator><dc:contributor><cc:Agent><dc:title>Wolthera van Hövell tot Westerflier (vectorization)</dc:title></cc:Agent></dc:contributor></cc:Work><cc:License rdf:about="http://creativecommons.org/licenses/by-sa/4.0/"><cc:permits rdf:resource="http://creativecommons.org/ns#Reproduction"/><cc:permits rdf:resource="http://creativecommons.org/ns#Distribution"/><cc:requires rdf:resource="http://creativecommons.org/ns#Notice"/><cc:requires rdf:resource="http://creativecommons.org/ns#Attribution"/><cc:permits rdf:resource="http://creativecommons.org/ns#DerivativeWorks"/><cc:requires rdf:resource="http://creativecommons.org/ns#ShareAlike"/></cc:License></rdf:RDF></metadata></svg>
