<?xml version="1.0" encoding="UTF-8"?>
<!-- Created with Inkscape (http://www.inkscape.org/) -->
<svg width="33" height="31" version="1.1" viewBox="0 0 33 31" xml:space="preserve" xmlns="http://www.w3.org/2000/svg" xmlns:cc="http://creativecommons.org/ns#" xmlns:dc="http://purl.org/dc/elements/1.1/" xmlns:rdf="http://www.w3.org/1999/02/22-rdf-syntax-ns#"><g transform="rotate(-45 33.863 26.45)"><g transform="rotate(45 33.863 26.45)"><path transform="rotate(-45)" d="m-2.6914 9.2812c-2.2452-0.072426-4.472 0.71227-6.1465 2.3867-3.3492 3.3492-3.1396 8.8799 0.35547 12.375 0.86666 0.86288 1.9187 1.4734 3.0312 1.9414-0.071878 0.23374-0.16992 0.45775-0.16992 0.71484v7.6445c0 1.3845 1.1155 2.5 2.5 2.5h1.8398c1.3845 0 2.5-1.1155 2.5-2.5v-7.6445c0-0.21323-0.19013-0.33942-0.24023-0.53711 1.0784-0.40263 2.09-0.95426 2.9102-1.7676 3.3492-3.3492 3.1401-8.8795-0.35352-12.373-1.7418-1.7418-3.9883-2.668-6.2266-2.7402z" fill="#fff" stroke-linejoin="round" stroke-width="2" style="paint-order:stroke markers fill"/></g><rect x="24" y="9" width="4.8394" height="10.647" ry="1.5" style="paint-order:stroke markers fill"/><rect x="25" y="8" width="3" height="2.5864" ry=".5" fill="#fff" style="paint-order:stroke markers fill"/><path d="m27.5 12a0.5 0.5 0 0 0-0.5 0.5v5.5a0.5 0.5 0 0 0 0.5 0.5 0.5 0.5 0 0 0 0.5-0.5v-5.5a0.5 0.5 0 0 0-0.5-0.5z" color="#000000" fill="#fff" stroke-linecap="round" stroke-linejoin="round" style="-inkscape-stroke:none;paint-order:stroke markers fill"/></g><g><ellipse cx="11" cy="14.5" rx="8" ry="7.5" style="paint-order:stroke markers fill"/><ellipse cx="11" cy="14.5" rx="6" ry="5.5" fill="#fff" style="paint-order:stroke markers fill"/><path d="m10 10c0 1-2 2-2 4.5 0 1.5 2.5 3.5 4 3.5-1.5 2.5-6 0-6-3.5s2.5-4.5 4-4.5z" style="paint-order:stroke markers fill"/></g><metadata><rdf:RDF><cc:Work rdf:about=""><dc:contributor><cc:Agent><dc:title>Wolthera van Hövell tot Westerflier (Vectorization)
</dc:title></cc:Agent></dc:contributor><dc:creator><cc:Agent><dc:title>David Revoy</dc:title></cc:Agent></dc:creator></cc:Work><cc:License rdf:about="http://creativecommons.org/licenses/by-sa/4.0/"><cc:permits rdf:resource="http://creativecommons.org/ns#Reproduction"/><cc:permits rdf:resource="http://creativecommons.org/ns#Distribution"/><cc:requires rdf:resource="http://creativecommons.org/ns#Notice"/><cc:requires rdf:resource="http://creativecommons.org/ns#Attribution"/><cc:permits rdf:resource="http://creativecommons.org/ns#DerivativeWorks"/><cc:requires rdf:resource="http://creativecommons.org/ns#ShareAlike"/></cc:License></rdf:RDF></metadata></svg>
