<?xml version="1.0" encoding="UTF-8"?>
<!-- Created with Inkscape (http://www.inkscape.org/) -->
<svg width="32" height="32" version="1.1" viewBox="0 0 32 32" xml:space="preserve" xmlns="http://www.w3.org/2000/svg" xmlns:cc="http://creativecommons.org/ns#" xmlns:dc="http://purl.org/dc/elements/1.1/" xmlns:rdf="http://www.w3.org/1999/02/22-rdf-syntax-ns#"><g stroke-linejoin="round"><path d="m13 5v3h-5v-3zm-8.0001-1.1e-6v3h-5v-3zm0 3h3v5h-3zm0-8.0001h3v5h-3z" fill="#fff" stroke-width="3.4641" style="paint-order:stroke fill markers"/><path d="m13 6v1h-5v-1zm-8.0001-1.1e-6v1h-5v-1zm1 2h1v5h-1zm0-8.0001h1v5h-1z" stroke-width="2" style="paint-order:stroke fill markers"/></g><path d="m27.941 12.852a0.5 0.5 0 0 0-0.68652 0.1624l-4.348 7.0202-8.0389-3.2185a0.5 0.5 0 0 0-0.64961 0.28052 0.5 0.5 0 0 0 0.27313 0.64961l7.8765 3.1521-6.8283 11.006 15.288-8.7033-6.9833-2.7904 4.2594-6.8652a0.5 0.5 0 0 0-0.1624-0.6939zm-4.6359 8.4228 5.219 2.0891-10.069 5.7358z" color="#000000" fill="#fff" stroke-dashoffset=".8" stroke-linecap="round" stroke-miterlimit="4.3" stroke-width="3.7796" style="-inkscape-stroke:none;paint-order:markers fill stroke"/><path d="m27.66 11.974a0.5 0.5 0 0 0-0.68652 0.1624l-4.348 7.0202-8.0389-3.2185a0.5 0.5 0 0 0-0.64961 0.27313 0.5 0.5 0 0 0 0.28051 0.65699l7.8692 3.1447-6.8283 11.014 15.288-8.7033-6.9833-2.7904 4.2594-6.8726a0.5 0.5 0 0 0-0.1624-0.68652zm-4.6285 8.4154 5.2264 2.0891-10.076 5.7432z" color="#000000" stroke-dashoffset=".8" stroke-linecap="round" stroke-miterlimit="4.3" stroke-width="3.7796" style="-inkscape-stroke:none;paint-order:markers fill stroke"/><metadata><rdf:RDF><cc:Work rdf:about=""><dc:contributor><cc:Agent><dc:title>Wolthera van Hövell tot Westerflier (Vectorization)</dc:title></cc:Agent></dc:contributor></cc:Work><cc:License rdf:about="http://creativecommons.org/licenses/by-sa/4.0/"><cc:permits rdf:resource="http://creativecommons.org/ns#Reproduction"/><cc:permits rdf:resource="http://creativecommons.org/ns#Distribution"/><cc:requires rdf:resource="http://creativecommons.org/ns#Notice"/><cc:requires rdf:resource="http://creativecommons.org/ns#Attribution"/><cc:permits rdf:resource="http://creativecommons.org/ns#DerivativeWorks"/><cc:requires rdf:resource="http://creativecommons.org/ns#ShareAlike"/></cc:License></rdf:RDF></metadata></svg>
