<?xml version="1.0" encoding="UTF-8"?>
<!-- Created with Inkscape (http://www.inkscape.org/) -->
<svg width="32" height="32" version="1.1" viewBox="0 0 32 32" xml:space="preserve" xmlns="http://www.w3.org/2000/svg" xmlns:cc="http://creativecommons.org/ns#" xmlns:dc="http://purl.org/dc/elements/1.1/" xmlns:rdf="http://www.w3.org/1999/02/22-rdf-syntax-ns#"><path d="m16 16-0.0034 1.0005h1.0039v-1.0039zm1.997-0.0034v1.0039h1.0039v-1.0039zm2.0005 0v1.0039h1.0039v-1.0039zm2.0005 0v1.0039h1.0039v-1.0039zm2.0005 0v1.0039h1.0039v-1.0039zm2.0005 0v1.0039h1.0039v-1.0039zm2.0005 0v1.0039h1.0039v-1.0039zm2.0005 0v1.0039h0.99656v-1.0039zm-14.003 2.0005v1.0039h1.0039v-1.0039zm14.003 0v1.0039h0.99656v-1.0039zm-14.003 2.0005v1.0039h1.0039v-1.0039zm14.003 0v1.0039h0.99656v-1.0039zm-14.003 2.0005v1.0039h1.0039v-1.0039zm14.003 0v1.0039h0.99656v-1.0039zm-14.003 2.0005v1.0039h1.0039v-1.0039zm14.003 0v1.0039h0.99656v-1.0039zm-14.003 2.0005v1.0039h1.0039v-1.0039zm14.003 0v1.0039h0.99656v-1.0039zm-14.003 2.0005v1.0039h1.0039v-1.0039zm14.003 0v1.0039h0.99656v-1.0039zm-14.003 2.0005v0.99656h1.0039v-0.99656h-0.50197zm2.0005 0v0.99656h1.0039v-0.99656zm2.0005 0v0.99656h1.0039v-0.99656zm2.0005 0v0.99656h1.0039v-0.99656zm2.0005 0v0.99656h1.0039v-0.99656zm2.0005 0v0.99656h1.0039v-0.99656zm2.0005 0v0.99656h1.0039v-0.99656zm2.0005 0v0.99656h0.99656v-0.99656h-0.49459z" color="#000000" stroke-dasharray="0.999999, 0.999999" stroke-dashoffset=".5" stroke-width="3.7795" style="-inkscape-stroke:none;paint-order:markers fill stroke"/><path d="m16 17-2e-3 1h1.0039v-1.0039zm1.9985-0.0039v1.0039h1.0039v-1.004zm2.0005 0v1.0039h1.0039v-1.004zm2.0005 0v1.0039h1.0039v-1.004zm2.0005 0v1.0039h1.0039v-1.004zm2.0005 0v1.0039h1.0039v-1.004zm2.0005 0v1.0039h1.0039v-1.004zm2.0005 0v1.0039h0.99656v-1.0039zm-14.003 2.0005v1.0039h1.0039v-1.0039zm14.003 0v1.0039h0.99656v-1.0039zm-14.003 2.0005v1.0039h1.0039v-1.0039zm14.003 0v1.0039h0.99656v-1.0039zm-14.003 2.0005v1.0039h1.0039v-1.0039zm14.003 0v1.0039h0.99656v-1.0039zm-14.003 2.0005v1.0039h1.0039v-1.0039zm14.003 0v1.0039h0.99656v-1.0039zm-14.003 2.0005v1.0039h1.0039v-1.0039zm14.003 0v1.0039h0.99656v-1.0039zm-14.003 2.0005v1.0039h1.0039v-1.0039zm14.003 0v1.0039h0.99656v-1.004zm-14.003 2.0005v0.99656h1.0039v-0.99656h-0.50197zm2.0005 0v0.99656h1.0039v-0.99656zm2.0005 0v0.99656h1.0039v-0.99656zm2.0005 0v0.99656h1.0039v-0.99656zm2.0005 0v0.99656h1.0039v-0.99656zm2.0005 0v0.99656h1.0039v-0.99656zm2.0005 0v0.99656h1.0039v-0.99656zm2.0005 0v0.99656h0.99656v-0.99656h-0.49459z" color="#000000" fill="#fff" stroke-dasharray="0.999999, 0.999999" stroke-dashoffset=".5" stroke-width="3.7795" style="-inkscape-stroke:none;paint-order:markers fill stroke"/><g transform="scale(3.7795)" stroke-linejoin="round"><path transform="rotate(90)" d="m1.3229-3.4396h0.79375v1.3229h-0.79375zm-3e-7 2.1167h0.79375v1.3229h-0.79375zm0.79375 0v-0.79375h1.3229v0.79375zm-2.1167 0v-0.79375h1.3229v0.79375z" fill="#fff" stroke-width=".91654" style="paint-order:stroke fill markers"/><path transform="rotate(90)" d="m1.5875-3.4396h0.26458v1.3229h-0.26458zm-3e-7 2.1167h0.26458v1.3229h-0.26458zm0.52917-0.26458v-0.26458h1.3229v0.26458zm-2.1167 0v-0.26458h1.3229v0.26458z" stroke-width=".52917" style="paint-order:stroke fill markers"/></g><g transform="translate(13.217 1.4712)"><path d="m11.265 1.5259a0.50005 0.50005 0 0 0-0.35433 0.14764l-6.0015 6.0015a0.50005 0.50005 0 0 0-0.14764 0.35433v2.0005a0.50005 0.50005 0 0 0 0.14764 0.35433l2.0005 2.0005a0.50005 0.50005 0 0 0 0.35433 0.14764h1.0039a0.50005 0.50005 0 0 0 0.3248-0.1255l8.002-6.9981a0.50005 0.50005 0 0 0 0.16978-0.37648v-1.0039a0.50005 0.50005 0 0 0-0.14764-0.35433l-2.0005-2.0005a0.50005 0.50005 0 0 0-0.35433-0.14764zm0.20669 1.0039h2.5837l1.7126 1.7052v0.56841l-7.692 6.7249h-0.60532l-1.7052-1.7052v-1.5871z" color="#000000" fill="#fefefe" stroke-linejoin="round" stroke-width="3.7795" style="-inkscape-stroke:none;paint-order:markers fill stroke"/><path d="m16.265 4.0288-8 7h-1l-2-2-4e-7 -2 6-6h3l2 2z" fill="#fff" style="paint-order:markers fill stroke"/><g><path d="m11.265 0.5293a0.50005 0.50005 0 0 0-0.35433 0.14764l-6.0015 6.0015a0.50005 0.50005 0 0 0-0.14764 0.34695v2.0005a0.50005 0.50005 0 0 0 0.14764 0.35433l2.0005 2.0005a0.50005 0.50005 0 0 0 0.35433 0.14764h1.0039a0.50005 0.50005 0 0 0 0.3248-0.12549l8.002-6.9981a0.50005 0.50005 0 0 0 0.16978-0.37648v-0.99656a0.50005 0.50005 0 0 0-0.14764-0.35433l-2.0005-2.0005a0.50005 0.50005 0 0 0-0.35433-0.14764zm0.20669 0.99656h2.5837l1.7126 1.7126v0.56103l-7.692 6.7323h-0.60532l-1.7052-1.7126v-1.5797z" color="#000000" stroke-linejoin="round" stroke-width="3.7795" style="-inkscape-stroke:none;paint-order:markers fill stroke"/><path d="m11.265 1.0288 4 4 1-1v-1l-2-2z" style="paint-order:markers fill stroke"/><path d="m7.2647 6.5288 3.5-3 3 3-4 3z" style="paint-order:markers fill stroke"/></g></g><metadata><rdf:RDF><cc:Work rdf:about=""><dc:contributor><cc:Agent><dc:title>Wolthera van Hövell tot Westerflier (Vectorization)
Tomtomtom (eraser)
David Revoy (add/subtract icons)
Deif Lou(symmetric difference, intersect icons)</dc:title></cc:Agent></dc:contributor></cc:Work><cc:License rdf:about="http://creativecommons.org/licenses/by-sa/4.0/"><cc:permits rdf:resource="http://creativecommons.org/ns#Reproduction"/><cc:permits rdf:resource="http://creativecommons.org/ns#Distribution"/><cc:requires rdf:resource="http://creativecommons.org/ns#Notice"/><cc:requires rdf:resource="http://creativecommons.org/ns#Attribution"/><cc:permits rdf:resource="http://creativecommons.org/ns#DerivativeWorks"/><cc:requires rdf:resource="http://creativecommons.org/ns#ShareAlike"/></cc:License></rdf:RDF></metadata></svg>
