<?xml version="1.0" encoding="UTF-8" standalone="no"?>
<!-- Created with Inkscape (http://www.inkscape.org/) -->

<svg
   width="32"
   height="32"
   viewBox="0 0 32 32"
   version="1.1"
   id="svg5"
   xml:space="preserve"
   inkscape:version="1.2.2 (b0a8486541, 2022-12-01)"
   sodipodi:docname="tool_rectangular_selection_cursor_sub.svg"
   xmlns:inkscape="http://www.inkscape.org/namespaces/inkscape"
   xmlns:sodipodi="http://sodipodi.sourceforge.net/DTD/sodipodi-0.dtd"
   xmlns="http://www.w3.org/2000/svg"
   xmlns:svg="http://www.w3.org/2000/svg"
   xmlns:rdf="http://www.w3.org/1999/02/22-rdf-syntax-ns#"
   xmlns:cc="http://creativecommons.org/ns#"
   xmlns:dc="http://purl.org/dc/elements/1.1/"><sodipodi:namedview
     id="namedview7"
     pagecolor="#818181"
     bordercolor="#666666"
     borderopacity="1.0"
     inkscape:showpageshadow="2"
     inkscape:pageopacity="0"
     inkscape:pagecheckerboard="0"
     inkscape:deskcolor="#d1d1d1"
     inkscape:document-units="px"
     showgrid="true"
     inkscape:zoom="11.50875"
     inkscape:cx="4.8224177"
     inkscape:cy="16.335397"
     inkscape:window-width="1920"
     inkscape:window-height="1010"
     inkscape:window-x="0"
     inkscape:window-y="0"
     inkscape:window-maximized="1"
     inkscape:current-layer="layer1"><inkscape:grid
       type="xygrid"
       id="grid4281"
       empspacing="4"
       spacingx="0.13229166"
       spacingy="0.13229166" /></sodipodi:namedview><defs
     id="defs2" /><g
     inkscape:label="Layer 1"
     inkscape:groupmode="layer"
     id="layer1"><path
       style="color:#000000;fill:#000000;stroke-width:3.77953;stroke-dasharray:0.999999, 0.999999;stroke-dashoffset:0.500001;-inkscape-stroke:none;paint-order:markers fill stroke"
       d="m 16.000001,16.000001 -0.0034,1.000493 h 1.003937 v -1.003937 z m 1.997048,-0.0034 v 1.003937 h 1.003937 v -1.003941 z m 2.000493,0 v 1.003937 h 1.003937 v -1.003941 z m 2.000492,0 v 1.003937 h 1.003937 v -1.003941 z m 2.000492,0 v 1.003937 h 1.003938 v -1.003941 z m 2.000492,0 v 1.003937 h 1.003938 v -1.003941 z m 2.000493,0 v 1.003937 h 1.003937 v -1.003941 z m 2.000492,0 v 0.501968 0.501969 h 0.501969 0.494587 v -1.003941 z m -14.003446,2.000488 v 1.003937 h 1.003937 v -1.003937 z m 14.003446,0 v 1.003937 h 0.996556 v -1.003937 z m -14.003446,2.000492 v 1.003937 h 1.003937 v -1.003937 z m 14.003446,0 v 1.003937 h 0.996556 v -1.003937 z m -14.003446,2.000493 v 1.003937 h 1.003937 v -1.003937 z m 14.003446,0 v 1.003937 h 0.996556 v -1.003937 z m -14.003446,2.000492 v 1.003937 h 1.003937 v -1.003937 z m 14.003446,0 v 1.003937 h 0.996556 v -1.003937 z m -14.003446,2.000492 v 1.003937 h 1.003937 v -1.003937 z m 14.003446,0 v 1.003937 h 0.996556 v -1.003937 z m -14.003446,2.000493 v 1.003937 h 1.003937 v -1.003937 z m 14.003446,0 v 1.003937 h 0.996556 v -1.003937 z m -14.003446,2.000492 v 0.996555 h 1.003937 v -0.494586 -0.501969 h -0.501968 z m 2.000492,0 v 0.996555 h 1.003937 v -0.996555 z m 2.000493,0 v 0.996555 h 1.003937 v -0.996555 z m 2.000492,0 v 0.996555 h 1.003937 v -0.996555 z m 2.000492,0 v 0.996555 h 1.003938 v -0.996555 z m 2.000492,0 v 0.996555 h 1.003938 v -0.996555 z m 2.000493,0 v 0.996555 h 1.003937 v -0.996555 z m 2.000492,0 v 0.501969 0.494586 h 0.996556 v -0.996555 h -0.494587 z"
       id="rect8383"
       sodipodi:nodetypes="cccccccccccccccccccccccccccccccccccccccccccccccccccccccccccccccccccccccccccccccccccccccccccccccccccccccccccccccccccccccccccccccccccccccccccccccccc" /><path
       style="color:#000000;fill:#ffffff;fill-opacity:1;stroke-width:3.77953;stroke-dasharray:0.999999, 0.999999;stroke-dashoffset:0.500001;-inkscape-stroke:none;paint-order:markers fill stroke"
       d="m 16.000001,17.000001 -0.002,1 h 1.003937 v -1.003937 z m 1.998523,-0.0039 v 1.003937 h 1.003937 V 16.99607 Z m 2.000493,0 v 1.003937 h 1.003937 V 16.99607 Z m 2.000492,0 v 1.003937 h 1.003937 V 16.99607 Z m 2.000493,0 v 1.003937 h 1.003937 V 16.99607 Z m 2.000492,0 v 1.003937 h 1.003937 V 16.99607 Z m 2.000492,0 v 1.003937 h 1.003937 V 16.99607 Z m 2.000493,0 v 0.501962 0.501969 h 0.501968 0.494587 v -1.003937 z m -14.003447,2.000486 v 1.003937 h 1.003937 v -1.003937 z m 14.003447,0 v 1.003937 h 0.996555 v -1.003937 z m -14.003447,2.000492 v 1.003937 h 1.003937 v -1.003937 z m 14.003447,0 v 1.003937 h 0.996555 v -1.003937 z m -14.003447,2.000493 v 1.003937 h 1.003937 v -1.003937 z m 14.003447,0 v 1.003937 h 0.996555 v -1.003937 z m -14.003447,2.000492 v 1.003937 h 1.003937 v -1.003937 z m 14.003447,0 v 1.003937 h 0.996555 v -1.003937 z m -14.003447,2.000492 v 1.003937 h 1.003937 v -1.003937 z m 14.003447,0 v 1.003937 h 0.996555 v -1.003937 z m -14.003447,2.000493 v 1.003937 h 1.003937 v -1.003937 z m 14.003447,0 v 1.003937 h 0.996555 V 28.999018 Z M 15.998032,30.99951 v 0.996556 h 1.003937 V 31.501479 30.99951 H 16.5 Z m 2.000492,0 v 0.996556 h 1.003937 V 30.99951 Z m 2.000493,0 v 0.996556 h 1.003937 V 30.99951 Z m 2.000492,0 v 0.996556 h 1.003937 V 30.99951 Z m 2.000493,0 v 0.996556 h 1.003937 V 30.99951 Z m 2.000492,0 v 0.996556 h 1.003937 V 30.99951 Z m 2.000492,0 v 0.996556 h 1.003937 V 30.99951 Z m 2.000493,0 v 0.501969 0.494587 h 0.996555 V 30.99951 h -0.494587 z"
       id="rect8383-3"
       sodipodi:nodetypes="cccccccccccccccccccccccccccccccccccccccccccccccccccccccccccccccccccccccccccccccccccccccccccccccccccccccccccccccccccccccccccccccccccccccccccccccccc" /><g
       id="g4577"
       inkscape:label="reticule"
       transform="scale(3.779528)"><path
         id="rect4381-7-56-9"
         style="fill:#ffffff;stroke-width:0.916544;stroke-linejoin:round;paint-order:stroke fill markers"
         transform="rotate(90)"
         d="m 1.3229169,-3.4395833 h 0.7937499 v 1.3229166 H 1.3229169 Z m -3e-7,2.1166667 h 0.79375 V 0 h -0.79375 z m 0.79375,0 v -0.79375 h 1.3229166 v 0.79375 z m -2.116666560263569,0 v -0.79375 H 1.3229167 v 0.79375 z"
         inkscape:label="caret-stroke" /><path
         id="rect4381-2-1"
         style="stroke-width:0.529167;stroke-linejoin:round;paint-order:stroke fill markers"
         transform="rotate(90)"
         d="m 1.5875,-3.4395833 h 0.2645833 v 1.3229166 H 1.5875 Z m -3e-7,2.1166667 H 1.8520831 V 0 H 1.5874997 Z M 2.1166666,-1.5875 V -1.8520833 H 3.4395832 V -1.5875 Z M 0,-1.5875 V -1.8520833 H 1.3229166 V -1.5875 Z"
         inkscape:label="caret-fill" /></g><g
       id="g45082"
       inkscape:label="subtract"
       style="display:inline"
       transform="translate(2.9821772)"><rect
         style="fill:#ffffff;fill-opacity:1;stroke:none;stroke-width:1;stroke-linecap:round;stroke-linejoin:round;stroke-dasharray:none;stroke-opacity:1;paint-order:stroke fill markers"
         id="rect45041"
         width="7"
         height="1"
         x="17"
         y="24" /><rect
         style="fill:#000000;fill-opacity:1;stroke:none;stroke-width:1;stroke-linecap:round;stroke-linejoin:round;stroke-dasharray:none;stroke-opacity:1;paint-order:stroke fill markers"
         id="rect45041-0"
         width="7"
         height="1"
         x="17"
         y="23" /></g></g><metadata
     id="metadata49238"><rdf:RDF><cc:Work
         rdf:about=""><dc:contributor><cc:Agent><dc:title>Wolthera van Hövell tot Westerflier (Vectorization)
Tomtomtom (eraser)
David Revoy (add/subtract icons)
Deif Lou(symmetric difference, intersect icons)</dc:title></cc:Agent></dc:contributor></cc:Work><cc:License rdf:about="http://creativecommons.org/licenses/by-sa/4.0/"><cc:permits rdf:resource="http://creativecommons.org/ns#Reproduction"/><cc:permits rdf:resource="http://creativecommons.org/ns#Distribution"/><cc:requires rdf:resource="http://creativecommons.org/ns#Notice"/><cc:requires rdf:resource="http://creativecommons.org/ns#Attribution"/><cc:permits rdf:resource="http://creativecommons.org/ns#DerivativeWorks"/><cc:requires rdf:resource="http://creativecommons.org/ns#ShareAlike"/></cc:License></rdf:RDF></metadata></svg>
