<?xml version="1.0" encoding="UTF-8" standalone="no"?>
<!-- Created with Inkscape (http://www.inkscape.org/) -->

<svg
   width="32"
   height="32"
   viewBox="0 0 32 32"
   version="1.1"
   id="svg5"
   xml:space="preserve"
   inkscape:version="1.2.2 (b0a8486541, 2022-12-01)"
   sodipodi:docname="tool_contiguous_selection_cursor.svg"
   xmlns:inkscape="http://www.inkscape.org/namespaces/inkscape"
   xmlns:sodipodi="http://sodipodi.sourceforge.net/DTD/sodipodi-0.dtd"
   xmlns="http://www.w3.org/2000/svg"
   xmlns:svg="http://www.w3.org/2000/svg"
   xmlns:rdf="http://www.w3.org/1999/02/22-rdf-syntax-ns#"
   xmlns:cc="http://creativecommons.org/ns#"
   xmlns:dc="http://purl.org/dc/elements/1.1/"><sodipodi:namedview
     id="namedview7"
     pagecolor="#818181"
     bordercolor="#666666"
     borderopacity="1.0"
     inkscape:showpageshadow="2"
     inkscape:pageopacity="0"
     inkscape:pagecheckerboard="0"
     inkscape:deskcolor="#d1d1d1"
     inkscape:document-units="px"
     showgrid="true"
     inkscape:zoom="20.044348"
     inkscape:cx="12.34762"
     inkscape:cy="15.765043"
     inkscape:window-width="1920"
     inkscape:window-height="1010"
     inkscape:window-x="0"
     inkscape:window-y="0"
     inkscape:window-maximized="1"
     inkscape:current-layer="layer1"><inkscape:grid
       type="xygrid"
       id="grid4281"
       empspacing="4"
       spacingx="0.13229166"
       spacingy="0.13229166" /></sodipodi:namedview><defs
     id="defs2" /><g
     inkscape:label="Layer 1"
     inkscape:groupmode="layer"
     id="layer1"><g
       id="g4577"
       inkscape:label="reticule"
       transform="scale(3.779528)"><path
         id="rect4381-7-56-9"
         style="fill:#ffffff;stroke-width:0.916544;stroke-linejoin:round;paint-order:stroke fill markers"
         transform="rotate(90)"
         d="m 1.3229169,-3.4395833 h 0.7937499 v 1.3229166 H 1.3229169 Z m -3e-7,2.1166667 h 0.79375 V 0 h -0.79375 z m 0.79375,0 v -0.79375 h 1.3229166 v 0.79375 z m -2.116666560263569,0 v -0.79375 H 1.3229167 v 0.79375 z"
         inkscape:label="caret-stroke" /><path
         id="rect4381-2-1"
         style="stroke-width:0.529167;stroke-linejoin:round;paint-order:stroke fill markers"
         transform="rotate(90)"
         d="m 1.5875,-3.4395833 h 0.2645833 v 1.3229166 H 1.5875 Z m -3e-7,2.1166667 H 1.8520831 V 0 H 1.5874997 Z M 2.1166666,-1.5875 V -1.8520833 H 3.4395832 V -1.5875 Z M 0,-1.5875 V -1.8520833 H 1.3229166 V -1.5875 Z"
         inkscape:label="caret-fill" /></g><path
       style="display:inline;fill:#000000;fill-opacity:1;stroke:none;stroke-width:0.800001;stroke-linecap:butt;stroke-linejoin:miter;stroke-dasharray:none;stroke-dashoffset:0.396873;stroke-opacity:1;paint-order:markers fill stroke"
       d="M 9.6896122,7.6045623 23.189613,21.104563 c 0.5,0.5 -1.5,2.5 -2,2 L 7.6896122,9.6045623 c -0.5000001,-0.5000002 1.4688716,-2.5456036 2,-2 z"
       id="path7426"
       sodipodi:nodetypes="ccccc" /><path
       style="color:#000000;fill:#ffffff;stroke-width:3.77953;stroke-dashoffset:0.396873;-inkscape-stroke:none;paint-order:markers fill stroke"
       d="M 9.4150065,7.1153889 C 9.2299494,7.1237795 9.063397,7.1785751 8.9056557,7.2556434 8.5901747,7.4097877 8.2920747,7.6572682 8.0198288,7.9347774 7.7475819,8.2122854 7.5068962,8.5147002 7.3554589,8.8279864 7.2797398,8.984629 7.2201026,9.142908 7.2078192,9.3225728 7.1955357,9.5022364 7.2500063,9.7338565 7.4071288,9.8909787 L 20.908607,23.385074 c 0.156782,0.156783 0.381261,0.213139 0.561024,0.19931 0.179762,-0.01383 0.339772,-0.07761 0.494586,-0.155021 0.30963,-0.154813 0.612257,-0.3908 0.885827,-0.66437 0.27357,-0.27357 0.509556,-0.576199 0.66437,-0.885827 0.07741,-0.154814 0.141192,-0.314824 0.155021,-0.494587 0.01383,-0.179762 -0.04253,-0.404243 -0.199309,-0.561023 L 9.9760301,7.3220819 C 9.8229872,7.1648682 9.6000642,7.1070097 9.4150065,7.1153889 Z M 9.4371545,7.9200153 22.864814,21.340292 c -0.0042,0.02918 -0.02264,0.08959 -0.06644,0.177166 -0.09518,0.190371 -0.290302,0.452704 -0.516732,0.679134 -0.226428,0.226431 -0.488763,0.421547 -0.679134,0.516732 -0.08758,0.04379 -0.147992,0.0622 -0.177166,0.06644 L 8.0198288,9.3668658 c 0.00404,-0.03103 0.015723,-0.1022929 0.059055,-0.1919282 0.093698,-0.1938406 0.2854866,-0.450943 0.5093507,-0.6791339 0.2238614,-0.228189 0.4843151,-0.4251512 0.6717518,-0.5167322 0.086166,-0.0421 0.1491212,-0.055786 0.1771682,-0.059056 z"
       id="path7426-8" /><path
       style="color:#000000;fill:#ffffff;stroke-width:3.77953;stroke-linecap:round;stroke-dashoffset:1.49999;-inkscape-stroke:none;paint-order:markers fill stroke"
       d="m 8.9056557,9.3890116 3.4990163,3.4990164 c 0.08106,-0.230422 0.28641,-0.446539 0.568406,-0.568406 L 9.4740616,8.8206058 C 9.2434612,8.849179 8.9134298,9.1627664 8.9056557,9.3890116 Z"
       id="path7554"
       sodipodi:nodetypes="ccccc" /><g
       id="path44978"
       inkscape:label="intersect"
       transform="translate(-12.999823,-2.0000199)"><path
         id="path44982-6"
         style="color:#000000;fill:#ffffff;fill-opacity:1;stroke-linecap:round;stroke-linejoin:round;-inkscape-stroke:none;paint-order:stroke fill markers"
         inkscape:label="stroke"
         sodipodi:type="inkscape:offset"
         inkscape:radius="1"
         inkscape:original="M 17.5 20 A 0.5 0.5 0 0 0 17.146484 20.146484 A 0.5 0.5 0 0 0 17.146484 20.853516 L 19.792969 23.5 L 17.146484 26.146484 A 0.5 0.5 0 0 0 17.146484 26.853516 A 0.5 0.5 0 0 0 17.853516 26.853516 L 20.5 24.207031 L 23.146484 26.853516 A 0.5 0.5 0 0 0 23.853516 26.853516 A 0.5 0.5 0 0 0 23.853516 26.146484 L 21.207031 23.5 L 23.853516 20.853516 A 0.5 0.5 0 0 0 23.853516 20.146484 A 0.5 0.5 0 0 0 23.146484 20.146484 L 20.5 22.792969 L 17.853516 20.146484 A 0.5 0.5 0 0 0 17.5 20 z "
         d="m 17.5,19 c -0.392677,5.9e-5 -0.782912,0.161759 -1.060547,0.439453 -0.555227,0.555344 -0.555227,1.56575 0,2.121094 L 18.378906,23.5 16.439453,25.439453 c -0.555227,0.555344 -0.555227,1.56575 0,2.121094 0.555344,0.555227 1.56575,0.555227 2.121094,0 L 20.5,25.621094 l 1.939453,1.939453 c 0.555344,0.555227 1.56575,0.555227 2.121094,0 0.555227,-0.555344 0.555227,-1.56575 0,-2.121094 L 22.621094,23.5 24.560547,21.560547 c 0.555227,-0.555344 0.555227,-1.56575 0,-2.121094 -0.555344,-0.555227 -1.56575,-0.555227 -2.121094,0 L 20.5,21.378906 18.560547,19.439453 C 18.282912,19.161759 17.892677,19.000059 17.5,19 Z" /><path
         id="path44982"
         style="color:#000000;fill:#000000;stroke-linecap:round;stroke-linejoin:round;-inkscape-stroke:none;paint-order:stroke fill markers"
         d="m 17.5,20 a 0.5,0.5 0 0 0 -0.353516,0.146484 0.5,0.5 0 0 0 0,0.707032 L 19.792969,23.5 17.146484,26.146484 a 0.5,0.5 0 0 0 0,0.707032 0.5,0.5 0 0 0 0.707032,0 L 20.5,24.207031 l 2.646484,2.646485 a 0.5,0.5 0 0 0 0.707032,0 0.5,0.5 0 0 0 0,-0.707032 L 21.207031,23.5 23.853516,20.853516 a 0.5,0.5 0 0 0 0,-0.707032 0.5,0.5 0 0 0 -0.707032,0 L 20.5,22.792969 17.853516,20.146484 A 0.5,0.5 0 0 0 17.5,20 Z"
         inkscape:label="fill" /></g></g><metadata
     id="metadata8435"><rdf:RDF><cc:Work
         rdf:about=""><dc:contributor><cc:Agent><dc:title>Wolthera van Hövell tot Westerflier (Vectorization)
Tomtomtom (eraser)
David Revoy (add/subtract icons)
Deif Lou(symmetric difference, intersect icons)</dc:title></cc:Agent></dc:contributor></cc:Work><cc:License rdf:about="http://creativecommons.org/licenses/by-sa/4.0/"><cc:permits rdf:resource="http://creativecommons.org/ns#Reproduction"/><cc:permits rdf:resource="http://creativecommons.org/ns#Distribution"/><cc:requires rdf:resource="http://creativecommons.org/ns#Notice"/><cc:requires rdf:resource="http://creativecommons.org/ns#Attribution"/><cc:permits rdf:resource="http://creativecommons.org/ns#DerivativeWorks"/><cc:requires rdf:resource="http://creativecommons.org/ns#ShareAlike"/></cc:License></rdf:RDF></metadata></svg>
