<?xml version="1.0" encoding="UTF-8"?>
<!-- Created with Inkscape (http://www.inkscape.org/) -->
<svg width="32" height="32" version="1.1" viewBox="0 0 32 32" xml:space="preserve" xmlns="http://www.w3.org/2000/svg" xmlns:cc="http://creativecommons.org/ns#" xmlns:dc="http://purl.org/dc/elements/1.1/" xmlns:rdf="http://www.w3.org/1999/02/22-rdf-syntax-ns#"><g stroke-linejoin="round"><path d="m13 5v3h-5v-3zm-7.9999-1.1e-6v3h-5v-3zm0 3h3v5h-3zm0-7.9999h3v5h-3z" fill="#fff" stroke-width="3.4641" style="paint-order:stroke fill markers"/><path d="m13 5.9999v0.99999h-5v-0.99999zm-7.9999-1.2e-6v0.99999h-5v-0.99999zm0.99999 2h0.99999v5h-0.99999zm0-7.9999h0.99999v5h-0.99999z" stroke-width="2" style="paint-order:stroke fill markers"/></g><path d="m18.735 10.682-0.26575 0.26575-8.9099 8.9172 7.1678 9.7662 5.2411-4.2003 7.8912 6.496 1.9045-14.129zm0.17716 1.2328 11.767 6.4296-1.5723 11.663-7.1235-5.8612-5.0639 4.06-6.0457-8.2381z" color="#000000" fill="#fff" stroke-width="3.7795" style="-inkscape-stroke:none;paint-order:markers fill stroke"/><path d="m18.905 11.885-0.25836 0.25836-7.8026 7.81 6.0605 8.2603 5.0639-4.06 7.1973 5.9128 1.6388-11.826zm0.18454 1.2328 10.63 5.6766-1.2918 9.3602-6.4517-5.2928-4.8794 3.9198-4.9384-6.7322z" color="#000000" stroke-width="3.7795" style="-inkscape-stroke:none;paint-order:markers fill stroke"/><metadata><rdf:RDF><cc:Work rdf:about=""><dc:contributor><cc:Agent><dc:title>Wolthera van Hövell tot Westerflier (Vectorization)</dc:title></cc:Agent></dc:contributor></cc:Work><cc:License rdf:about="http://creativecommons.org/licenses/by-sa/4.0/"><cc:permits rdf:resource="http://creativecommons.org/ns#Reproduction"/><cc:permits rdf:resource="http://creativecommons.org/ns#Distribution"/><cc:requires rdf:resource="http://creativecommons.org/ns#Notice"/><cc:requires rdf:resource="http://creativecommons.org/ns#Attribution"/><cc:permits rdf:resource="http://creativecommons.org/ns#DerivativeWorks"/><cc:requires rdf:resource="http://creativecommons.org/ns#ShareAlike"/></cc:License></rdf:RDF></metadata></svg>
