<?xml version="1.0" encoding="UTF-8"?>
<!-- Created with Inkscape (http://www.inkscape.org/) -->
<svg width="32" height="32" version="1.1" viewBox="0 0 32 32" xml:space="preserve" xmlns="http://www.w3.org/2000/svg" xmlns:cc="http://creativecommons.org/ns#" xmlns:dc="http://purl.org/dc/elements/1.1/" xmlns:rdf="http://www.w3.org/1999/02/22-rdf-syntax-ns#"><g stroke-linejoin="round"><path d="m13 5.0001v3h-5.0001v-3zm-8.0001-1.1e-6v3h-5.0001v-3zm0 3h3v5.0001h-3zm0-8.0001h3v5.0001h-3z" fill="#fff" stroke-width="3.4642" style="paint-order:stroke fill markers"/><path d="m13 6.0001v1h-5.0001v-1zm-8.0001-1.1e-6v1h-5.0001v-1zm1 2h1v5.0001h-1zm0-8.0001h1v5.0001h-1z" stroke-width="2" style="paint-order:stroke fill markers"/></g><path d="m20.5 17.001c-2.5754 0-4.9174 0.68702-6.6438 1.8381s-2.8568 2.8057-2.8568 4.6654c0 1.8598 1.1305 3.5069 2.8568 4.658s4.0684 1.8381 6.6438 1.8381 4.9174-0.68702 6.6438-1.8381 2.8568-2.7983 2.8568-4.658c0-1.8598-1.1305-3.5143-2.8568-4.6654s-4.0684-1.8381-6.6438-1.8381zm0 0.99657c2.3952 0 4.5591 0.65487 6.0901 1.6757 1.531 1.0208 2.4139 2.3768 2.4139 3.8313s-0.88287 2.803-2.4139 3.8239-3.6949 1.6757-6.0901 1.6757-4.5517-0.65487-6.0828-1.6757c-1.531-1.0208-2.4139-2.3694-2.4139-3.8239s0.88287-2.8104 2.4139-3.8313c1.531-1.0208 3.6875-1.6757 6.0828-1.6757z" color="#000000" fill="#fff" stroke-linejoin="round" stroke-width="3.7796" style="-inkscape-stroke:none;paint-order:markers fill stroke"/><path d="m20.5 15.997c-2.8561 0-5.4523 0.80531-7.3598 2.1408-1.9076 1.3355-3.1373 3.2404-3.1373 5.3667 0 2.1263 1.2298 4.0239 3.1373 5.3593 1.9076 1.3355 4.5038 2.1408 7.3598 2.1408 2.8561 0 5.4523-0.80531 7.3598-2.1408 1.9076-1.3355 3.1373-3.2331 3.1373-5.3593 0-2.1263-1.2298-4.0312-3.1373-5.3667-1.9076-1.3355-4.5038-2.1408-7.3598-2.1408zm0 1.004c2.6669 0 5.0723 0.75782 6.7841 1.9562 1.7118 1.1984 2.7166 2.807 2.7166 4.5473s-1.0048 3.3415-2.7166 4.5399c-1.7118 1.1984-4.1172 1.9562-6.7841 1.9562s-5.0723-0.75782-6.7841-1.9562c-1.7118-1.1984-2.7166-2.7996-2.7166-4.5399 0-1.7403 1.0048-3.3489 2.7166-4.5473s4.1172-1.9562 6.7841-1.9562z" color="#000000" stroke-linejoin="round" stroke-width="3.7796" style="-inkscape-stroke:none;paint-order:markers fill stroke"/><g transform="translate(13.235 1.4712)"><path d="m11.265 1.5259a0.50005 0.50005 0 0 0-0.35433 0.14764l-6.0015 6.0015a0.50005 0.50005 0 0 0-0.14764 0.35433v2.0005a0.50005 0.50005 0 0 0 0.14764 0.35433l2.0005 2.0005a0.50005 0.50005 0 0 0 0.35433 0.14764h1.0039a0.50005 0.50005 0 0 0 0.3248-0.1255l8.002-6.9981a0.50005 0.50005 0 0 0 0.16978-0.37648v-1.0039a0.50005 0.50005 0 0 0-0.14764-0.35433l-2.0005-2.0005a0.50005 0.50005 0 0 0-0.35433-0.14764zm0.20669 1.0039h2.5837l1.7126 1.7052v0.56841l-7.692 6.7249h-0.60532l-1.7052-1.7052v-1.5871z" color="#000000" fill="#fefefe" stroke-linejoin="round" stroke-width="3.7795" style="-inkscape-stroke:none;paint-order:markers fill stroke"/><path d="m16.265 4.0288-8 7h-1l-2-2-4e-7 -2 6-6h3l2 2z" fill="#fff" style="paint-order:markers fill stroke"/><g><path d="m11.265 0.5293a0.50005 0.50005 0 0 0-0.35433 0.14764l-6.0015 6.0015a0.50005 0.50005 0 0 0-0.14764 0.34695v2.0005a0.50005 0.50005 0 0 0 0.14764 0.35433l2.0005 2.0005a0.50005 0.50005 0 0 0 0.35433 0.14764h1.0039a0.50005 0.50005 0 0 0 0.3248-0.12549l8.002-6.9981a0.50005 0.50005 0 0 0 0.16978-0.37648v-0.99656a0.50005 0.50005 0 0 0-0.14764-0.35433l-2.0005-2.0005a0.50005 0.50005 0 0 0-0.35433-0.14764zm0.20669 0.99656h2.5837l1.7126 1.7126v0.56103l-7.692 6.7323h-0.60532l-1.7052-1.7126v-1.5797z" color="#000000" stroke-linejoin="round" stroke-width="3.7795" style="-inkscape-stroke:none;paint-order:markers fill stroke"/><path d="m11.265 1.0288 4 4 1-1v-1l-2-2z" style="paint-order:markers fill stroke"/><path d="m7.2647 6.5288 3.5-3 3 3-4 3z" style="paint-order:markers fill stroke"/></g></g><metadata><rdf:RDF><cc:Work rdf:about=""><dc:contributor><cc:Agent><dc:title>Wolthera van Hövell tot Westerflier (Vectorization)
Tomtomtom (eraser)</dc:title></cc:Agent></dc:contributor></cc:Work><cc:License rdf:about="http://creativecommons.org/licenses/by-sa/4.0/"><cc:permits rdf:resource="http://creativecommons.org/ns#Reproduction"/><cc:permits rdf:resource="http://creativecommons.org/ns#Distribution"/><cc:requires rdf:resource="http://creativecommons.org/ns#Notice"/><cc:requires rdf:resource="http://creativecommons.org/ns#Attribution"/><cc:permits rdf:resource="http://creativecommons.org/ns#DerivativeWorks"/><cc:requires rdf:resource="http://creativecommons.org/ns#ShareAlike"/></cc:License></rdf:RDF></metadata></svg>
