<?xml version="1.0" encoding="UTF-8"?>
<!-- Created with Inkscape (http://www.inkscape.org/) -->
<svg width="32" height="32" version="1.1" viewBox="0 0 32 32" xml:space="preserve" xmlns="http://www.w3.org/2000/svg" xmlns:cc="http://creativecommons.org/ns#" xmlns:dc="http://purl.org/dc/elements/1.1/" xmlns:rdf="http://www.w3.org/1999/02/22-rdf-syntax-ns#"><g stroke-linejoin="round"><path d="m13 4.9999v3h-4.9999v-3zm-7.9999-1.2e-6v3h-4.9999v-3zm0 3h3v4.9999h-3zm0-7.9999h3v4.9999h-3z" fill="#fff" stroke-width="3.464" style="paint-order:stroke fill markers"/><path d="m13 5.9999v0.99998h-4.9999v-0.99998zm-7.9999-1.1e-6v0.99998h-4.9999v-0.99998zm0.99998 2h0.99998v4.9999h-0.99998zm0-7.9999h0.99998v4.9999h-0.99998z" stroke-width="2" style="paint-order:stroke fill markers"/></g><path d="m15 15v17h17v-17zm0.99654 0.99654h15v15h-15z" color="#000000" fill="#fefefe" stroke-width="3.7795" style="-inkscape-stroke:none;paint-order:markers fill stroke"/><path d="m15.996 15.996v15h15v-15zm1.0039 1.0039h12.999v12.999h-12.999z" color="#000000" stroke-width="3.7795" style="-inkscape-stroke:none;paint-order:markers fill stroke"/><metadata><rdf:RDF><cc:Work rdf:about=""><dc:contributor><cc:Agent><dc:title>Wolthera van Hövell tot Westerflier (Vectorization)</dc:title></cc:Agent></dc:contributor></cc:Work><cc:License rdf:about="http://creativecommons.org/licenses/by-sa/4.0/"><cc:permits rdf:resource="http://creativecommons.org/ns#Reproduction"/><cc:permits rdf:resource="http://creativecommons.org/ns#Distribution"/><cc:requires rdf:resource="http://creativecommons.org/ns#Notice"/><cc:requires rdf:resource="http://creativecommons.org/ns#Attribution"/><cc:permits rdf:resource="http://creativecommons.org/ns#DerivativeWorks"/><cc:requires rdf:resource="http://creativecommons.org/ns#ShareAlike"/></cc:License></rdf:RDF></metadata></svg>
