<?xml version="1.0" encoding="UTF-8"?>
<!-- Created with Inkscape (http://www.inkscape.org/) -->
<svg width="32" height="32" version="1.1" viewBox="0 0 32 32" xml:space="preserve" xmlns="http://www.w3.org/2000/svg" xmlns:cc="http://creativecommons.org/ns#" xmlns:dc="http://purl.org/dc/elements/1.1/" xmlns:rdf="http://www.w3.org/1999/02/22-rdf-syntax-ns#"><g stroke-linejoin="round"><path d="m13 5.0001v3h-5v-3zm-8.0001-1.1e-6v3h-5v-3zm0 3h3v5h-3zm0-8.0001h3v5h-3z" fill="#fff" stroke-width="3.4641" style="paint-order:stroke fill markers"/><path d="m13 6.0001v1h-5v-1zm-8.0001-1.1e-6v1h-5v-1zm1 2h1v5h-1zm0-8.0001h1v5h-1z" stroke-width="2" style="paint-order:stroke fill markers"/></g><path d="m29.646 21.024a0.5 0.5 0 0 0-0.37648 0.03693l-17.001 8.9986a0.5 0.5 0 0 0-0.21408 0.67176 0.5 0.5 0 0 0 0.67914 0.21408l17.001-9.006a0.5 0.5 0 0 0 0.2067-0.67176 0.5 0.5 0 0 0-0.29528-0.2436z" color="#000000" fill="#fff" stroke-linecap="round" stroke-width="3.7796" style="-inkscape-stroke:none;paint-order:markers fill stroke"/><path d="m29.646 20.02a0.5 0.5 0 0 0-0.37648 0.03693l-17.001 8.9986a0.5 0.5 0 0 0-0.21408 0.67914 0.5 0.5 0 0 0 0.67914 0.2067l17.001-8.9986a0.5 0.5 0 0 0 0.2067-0.67914 0.5 0.5 0 0 0-0.29528-0.2436z" color="#000000" stroke-linecap="round" stroke-width="3.7796" style="-inkscape-stroke:none;paint-order:markers fill stroke"/><g transform="translate(13.235 1.4712)"><path d="m11.265 1.5259a0.50005 0.50005 0 0 0-0.35433 0.14764l-6.0015 6.0015a0.50005 0.50005 0 0 0-0.14764 0.35433v2.0005a0.50005 0.50005 0 0 0 0.14764 0.35433l2.0005 2.0005a0.50005 0.50005 0 0 0 0.35433 0.14764h1.0039a0.50005 0.50005 0 0 0 0.3248-0.1255l8.002-6.9981a0.50005 0.50005 0 0 0 0.16978-0.37648v-1.0039a0.50005 0.50005 0 0 0-0.14764-0.35433l-2.0005-2.0005a0.50005 0.50005 0 0 0-0.35433-0.14764zm0.20669 1.0039h2.5837l1.7126 1.7052v0.56841l-7.692 6.7249h-0.60532l-1.7052-1.7052v-1.5871z" color="#000000" fill="#fefefe" stroke-linejoin="round" stroke-width="3.7795" style="-inkscape-stroke:none;paint-order:markers fill stroke"/><path d="m16.265 4.0288-8 7h-1l-2-2-4e-7 -2 6-6h3l2 2z" fill="#fff" style="paint-order:markers fill stroke"/><g><path d="m11.265 0.5293a0.50005 0.50005 0 0 0-0.35433 0.14764l-6.0015 6.0015a0.50005 0.50005 0 0 0-0.14764 0.34695v2.0005a0.50005 0.50005 0 0 0 0.14764 0.35433l2.0005 2.0005a0.50005 0.50005 0 0 0 0.35433 0.14764h1.0039a0.50005 0.50005 0 0 0 0.3248-0.12549l8.002-6.9981a0.50005 0.50005 0 0 0 0.16978-0.37648v-0.99656a0.50005 0.50005 0 0 0-0.14764-0.35433l-2.0005-2.0005a0.50005 0.50005 0 0 0-0.35433-0.14764zm0.20669 0.99656h2.5837l1.7126 1.7126v0.56103l-7.692 6.7323h-0.60532l-1.7052-1.7126v-1.5797z" color="#000000" stroke-linejoin="round" stroke-width="3.7795" style="-inkscape-stroke:none;paint-order:markers fill stroke"/><path d="m11.265 1.0288 4 4 1-1v-1l-2-2z" style="paint-order:markers fill stroke"/><path d="m7.2647 6.5288 3.5-3 3 3-4 3z" style="paint-order:markers fill stroke"/></g></g><metadata><rdf:RDF><cc:Work rdf:about=""><dc:contributor><cc:Agent><dc:title>Wolthera van Hövell tot Westerflier (Vectorization)
Tomtomtom (eraser)</dc:title></cc:Agent></dc:contributor></cc:Work><cc:License rdf:about="http://creativecommons.org/licenses/by-sa/4.0/"><cc:permits rdf:resource="http://creativecommons.org/ns#Reproduction"/><cc:permits rdf:resource="http://creativecommons.org/ns#Distribution"/><cc:requires rdf:resource="http://creativecommons.org/ns#Notice"/><cc:requires rdf:resource="http://creativecommons.org/ns#Attribution"/><cc:permits rdf:resource="http://creativecommons.org/ns#DerivativeWorks"/><cc:requires rdf:resource="http://creativecommons.org/ns#ShareAlike"/></cc:License></rdf:RDF></metadata></svg>
