<?xml version="1.0" encoding="UTF-8"?>
<!-- Created with Inkscape (http://www.inkscape.org/) -->
<svg width="32" height="32" version="1.1" viewBox="0 0 32 32" xml:space="preserve" xmlns="http://www.w3.org/2000/svg" xmlns:cc="http://creativecommons.org/ns#" xmlns:dc="http://purl.org/dc/elements/1.1/" xmlns:rdf="http://www.w3.org/1999/02/22-rdf-syntax-ns#"><g><path d="m5 4.716-0.00246 11.28c-0.00616 0.89794 1.0824 1.3484 1.7126 0.70865l2.7017-2.7017h3.0856c0.91048 4.84e-4 1.3479-1.1169 0.67912-1.7347z" color="#000000" fill="#fff" stroke-linejoin="round" stroke-width="3.7795" style="-inkscape-stroke:none;paint-order:markers fill stroke"/><path d="m6 6.9999v8.9998l2.9999-2.9999h3.4999z" color="#000000" stroke-linejoin="round" stroke-width="2" style="-inkscape-stroke:none;paint-order:markers fill stroke"/><path d="m23.998 12.999c-1.5428 0-2.948 0.36035-4.0452 1.0187-1.0972 0.65834-1.9562 1.7035-1.9562 2.9822v4.0009h-2.0005v10.999h16.004v-10.999h-2.0005v-4.0009c0-1.2788-0.85156-2.3239-1.9488-2.9822s-2.5098-1.0187-4.0526-1.0187zm0 4.0009c0.64827 0 1.2174 0.18906 1.5649 0.42076 0.34755 0.2317 0.43552 0.42882 0.43552 0.57578v3.0044h-4.0009v-3.0044c0-0.14695 0.08797-0.34408 0.43552-0.57578 0.34755-0.2317 0.91666-0.42076 1.5649-0.42076z" color="#000000" fill="#fff" stroke-width="3.7795" style="-inkscape-stroke:none;paint-order:stroke markers fill"/><path d="m24 14c-2.7614 1e-6 -4.9999 1.3431-4.9999 2.9999v4.9999h-2v8.9998h14v-8.9998h-2v-4.9999c0-1.6568-2.2385-2.9999-4.9999-2.9999zm0 2c1.6568 1e-6 2.9999 0.89542 2.9999 2v3.9999h-5.9999v-3.9999c0-1.1046 1.3431-2 2.9999-2z" color="#000000" stroke-width="2" style="-inkscape-stroke:none;paint-order:stroke markers fill"/></g><metadata><rdf:RDF><cc:Work rdf:about=""><dc:creator><cc:Agent><dc:title>Timothée Giet</dc:title></cc:Agent></dc:creator><dc:contributor><cc:Agent><dc:title>Wolthera van Hövell tot Westerflier (Vectorization)</dc:title></cc:Agent></dc:contributor></cc:Work><cc:License rdf:about="http://creativecommons.org/licenses/by-sa/4.0/"><cc:permits rdf:resource="http://creativecommons.org/ns#Reproduction"/><cc:permits rdf:resource="http://creativecommons.org/ns#Distribution"/><cc:requires rdf:resource="http://creativecommons.org/ns#Notice"/><cc:requires rdf:resource="http://creativecommons.org/ns#Attribution"/><cc:permits rdf:resource="http://creativecommons.org/ns#DerivativeWorks"/><cc:requires rdf:resource="http://creativecommons.org/ns#ShareAlike"/></cc:License></rdf:RDF></metadata></svg>
