<?xml version="1.0" encoding="UTF-8"?>
<!-- Created with Inkscape (http://www.inkscape.org/) -->
<svg width="32" height="32" version="1.1" viewBox="0 0 32 32" xml:space="preserve" xmlns="http://www.w3.org/2000/svg" xmlns:cc="http://creativecommons.org/ns#" xmlns:dc="http://purl.org/dc/elements/1.1/" xmlns:rdf="http://www.w3.org/1999/02/22-rdf-syntax-ns#"><g fill="#fff"><rect x="1" y="27" width="5" height="5" style="paint-order:markers fill stroke"/><rect x="27" y="27" width="5" height="5" style="paint-order:markers fill stroke"/><rect x="27" y="1" width="5" height="5" style="paint-order:markers fill stroke"/><rect x="1" y="1" width="5" height="5" style="paint-order:markers fill stroke"/></g><g transform="translate(1.3279 1.3421)"><g stroke-linejoin="round" stroke-width="3.7795"><path d="m8.3119 5.8046c-0.37436 0.15378-0.61913 0.51803-0.62008 0.92274l-9.842e-4 5.003 4.9985 2e-3c0.89796 0.0062 1.3484-1.0825 0.70866-1.7126l-4.001-3.9936c-0.28409-0.28564-0.71184-0.37294-1.0851-0.22146z" color="#000000" fill="#fff" style="-inkscape-stroke:none;paint-order:markers fill stroke"/><path d="m14.491 6.7569c-1.8066 0.15012-3.5718 0.87839-4.9902 2.1555l0.67175 0.74557c2.5063-2.2567 6.2058-2.565 9.0502-0.75295 2.8444 1.8121 4.1233 5.2935 3.1373 8.5187l0.95965 0.29528c1.1161-3.6505-0.33863-7.6045-3.5581-9.6555-1.6097-1.0255-3.464-1.4567-5.2707-1.3066z" color="#000000" style="-inkscape-stroke:none;paint-order:markers fill stroke"/><path d="m14.402 5.7603c-2.0191 0.16778-3.9806 0.97903-5.5659 2.4065l0.66437 0.74557c2.8403-2.5574 7.0374-2.9024 10.261-0.84892 3.2234 2.0535 4.6755 6.0006 3.5581 9.6555l0.95965 0.28789c1.2474-4.0802-0.38778-8.4999-3.9862-10.792-1.7992-1.1462-3.8716-1.622-5.8907-1.4542z" color="#000000" fill="#fff" style="-inkscape-stroke:none;paint-order:markers fill stroke"/></g><path d="m8.6908 10.73h4l-4-4z" style="paint-order:markers fill stroke"/></g><g transform="rotate(180 3.7066 3.7137)"><g stroke-linejoin="round" stroke-width="3.7795"><path d="m-15.984-18.571c-0.37436 0.15378-0.61913 0.51803-0.62008 0.92274l-9.85e-4 5.003 4.9985 2e-3c0.89796 0.0062 1.3484-1.0825 0.70866-1.7126l-4.001-3.9936c-0.28409-0.28564-0.71184-0.37294-1.0851-0.22146z" color="#000000" fill="#fff" style="-inkscape-stroke:none;paint-order:markers fill stroke"/><path d="m-9.8057-17.618c-1.8066 0.15012-3.5718 0.87839-4.9902 2.1555l0.67175 0.74557c2.5063-2.2567 6.2058-2.565 9.0502-0.75295 2.8444 1.8121 4.1233 5.2935 3.1373 8.5187l0.95965 0.29528c1.1161-3.6505-0.33863-7.6045-3.5581-9.6555-1.6097-1.0255-3.464-1.4567-5.2707-1.3066z" color="#000000" style="-inkscape-stroke:none;paint-order:markers fill stroke"/><path d="m-9.8943-18.615c-2.0191 0.16778-3.9806 0.97903-5.5659 2.4065l0.66437 0.74557c2.8403-2.5574 7.0374-2.9024 10.261-0.84892 3.2234 2.0535 4.6755 6.0006 3.5581 9.6555l0.95965 0.28789c1.2474-4.0802-0.38778-8.4999-3.9862-10.792-1.7992-1.1462-3.8716-1.622-5.8907-1.4542z" color="#000000" fill="#fff" style="-inkscape-stroke:none;paint-order:markers fill stroke"/></g><path d="m-15.605-13.645h4l-4-4z" style="paint-order:markers fill stroke"/></g><path d="m2.0005 2.0005v28.996h28.996v-28.996zm0.99656 0.99656h27.003v27.003h-27.003z" color="#000000" fill="#fff" stroke-width="3.7795" style="-inkscape-stroke:none;paint-order:markers fill stroke"/><g><g><rect x="2" y="2" width="3" height="3" style="paint-order:markers fill stroke"/><rect x="28" y="2" width="3" height="3" style="paint-order:markers fill stroke"/><rect x="28" y="28" width="3" height="3" style="paint-order:markers fill stroke"/><rect x="2" y="28" width="3" height="3" style="paint-order:markers fill stroke"/></g><path d="m2.997 2.997v27.003h27.003v-27.003zm1.0039 1.0039h25.002v25.002h-25.002z" color="#000000" stroke-width="3.7795" style="-inkscape-stroke:none;paint-order:markers fill stroke"/></g><metadata><rdf:RDF><cc:Work rdf:about=""><dc:contributor><cc:Agent><dc:title>Wolthera van Hövell tot Westerflier (vectorization)</dc:title></cc:Agent></dc:contributor><dc:creator><cc:Agent><dc:title>Timothée Giet</dc:title></cc:Agent></dc:creator></cc:Work><cc:License rdf:about="http://creativecommons.org/licenses/by-sa/4.0/"><cc:permits rdf:resource="http://creativecommons.org/ns#Reproduction"/><cc:permits rdf:resource="http://creativecommons.org/ns#Distribution"/><cc:requires rdf:resource="http://creativecommons.org/ns#Notice"/><cc:requires rdf:resource="http://creativecommons.org/ns#Attribution"/><cc:permits rdf:resource="http://creativecommons.org/ns#DerivativeWorks"/><cc:requires rdf:resource="http://creativecommons.org/ns#ShareAlike"/></cc:License></rdf:RDF></metadata></svg>
