<?xml version="1.0" encoding="UTF-8"?>
<!-- Created with Inkscape (http://www.inkscape.org/) -->
<svg width="22" height="22" version="1.1" viewBox="0 0 22 22" xml:space="preserve" xmlns="http://www.w3.org/2000/svg" xmlns:cc="http://creativecommons.org/ns#" xmlns:dc="http://purl.org/dc/elements/1.1/" xmlns:rdf="http://www.w3.org/1999/02/22-rdf-syntax-ns#"><g><path d="m6.4149 0.08778c-0.35778-0.16036-0.77626-0.096864-1.0704 0.1624l-4.001 3.499-0.8435 0.75 0.8435 0.75591 4.001 3.499c0.64657 0.55806 1.65 0.10114 1.6535-0.75295v-7.0054c-4.203e-4 -0.39056-0.22816-0.74515-0.58317-0.90797z" color="#000000" fill="#fff" stroke-linejoin="round" stroke-width="3.7795" style="-inkscape-stroke:none;paint-order:markers fill stroke"/><path d="m17 4.4992h-11.5" fill="none" stroke="#000" style="paint-order:markers fill stroke"/><path d="m17 3.4992h-11.5" fill="none" stroke="#fff" style="paint-order:markers fill stroke"/><path d="m6 0.9992-4 3.5 4 3.5z" style="paint-order:markers fill stroke"/></g><g transform="matrix(-1 0 0 1 5.8208 1.3229)"><path d="m-9.7643 3.7649c-0.35778-0.16036-0.77626-0.096864-1.0704 0.1624l-4.001 3.499-0.8435 0.75 0.8435 0.75591 4.001 3.499c0.64657 0.55806 1.65 0.10114 1.6535-0.75295v-7.0054c-4.202e-4 -0.39056-0.22816-0.74515-0.58317-0.90797z" color="#000000" fill="#fff" stroke-linejoin="round" stroke-width="3.7795" style="-inkscape-stroke:none;paint-order:markers fill stroke"/><path d="m0.82083 8.1763h-11.5" fill="none" stroke="#000" style="paint-order:markers fill stroke"/><path d="m0.82083 7.1763h-11.5" fill="none" stroke="#fff" style="paint-order:markers fill stroke"/><path d="m-10.179 4.6763-4 3.5 4 3.5z" style="paint-order:markers fill stroke"/></g><metadata><rdf:RDF><cc:Work rdf:about=""><dc:contributor><cc:Agent><dc:title>Wolthera van Hövell tot Westerflier (Vectorization)</dc:title></cc:Agent></dc:contributor></cc:Work><cc:License rdf:about="http://creativecommons.org/licenses/by-sa/4.0/"><cc:permits rdf:resource="http://creativecommons.org/ns#Reproduction"/><cc:permits rdf:resource="http://creativecommons.org/ns#Distribution"/><cc:requires rdf:resource="http://creativecommons.org/ns#Notice"/><cc:requires rdf:resource="http://creativecommons.org/ns#Attribution"/><cc:permits rdf:resource="http://creativecommons.org/ns#DerivativeWorks"/><cc:requires rdf:resource="http://creativecommons.org/ns#ShareAlike"/></cc:License></rdf:RDF></metadata></svg>
